<?xml version="1.0" encoding="utf-8"?>
<!-- Generator: Adobe Illustrator 23.0.4, SVG Export Plug-In . SVG Version: 6.00 Build 0)  -->
<svg version="1.1" id="Layer_1" xmlns="http://www.w3.org/2000/svg" xmlns:xlink="http://www.w3.org/1999/xlink" x="0px" y="0px"
	 viewBox="0 0 22 18" style="enable-background:new 0 0 22 18;" xml:space="preserve">
<style type="text/css">
	.st0{fill-rule:evenodd;clip-rule:evenodd;}
</style>
<g id="Page-1">
	<g id="index_white_card" transform="translate(-958.000000, -102.000000)">
		<g id="Group-2" transform="translate(958.000000, 102.000000)">
			<path id="Rectangle" class="st0" d="M2,0h6c1.1,0,2,0.9,2,2v4c0,1.1-0.9,2-2,2H2C0.9,8,0,7.1,0,6V2C0,0.9,0.9,0,2,0z"/>
			<path id="Rectangle-Copy-3" class="st0" d="M2,10h6c1.1,0,2,0.9,2,2v4c0,1.1-0.9,2-2,2H2c-1.1,0-2-0.9-2-2v-4C0,10.9,0.9,10,2,10
				z"/>
			<path id="Rectangle-Copy-4" class="st0" d="M14,10h6c1.1,0,2,0.9,2,2v4c0,1.1-0.9,2-2,2h-6c-1.1,0-2-0.9-2-2v-4
				C12,10.9,12.9,10,14,10z"/>
			<path id="Rectangle-Copy-5" class="st0" d="M14,0h6c1.1,0,2,0.9,2,2v4c0,1.1-0.9,2-2,2h-6c-1.1,0-2-0.9-2-2V2C12,0.9,12.9,0,14,0
				z"/>
		</g>
	</g>
</g>
</svg>
