<?xml version="1.0" encoding="utf-8"?>
<!-- Generator: Adobe Illustrator 23.0.4, SVG Export Plug-In . SVG Version: 6.00 Build 0)  -->
<svg version="1.1" id="Layer_1" xmlns="http://www.w3.org/2000/svg" xmlns:xlink="http://www.w3.org/1999/xlink" x="0px" y="0px"
	 viewBox="0 0 22 18" style="enable-background:new 0 0 22 18;" xml:space="preserve">
<style type="text/css">
	.st0{fill-rule:evenodd;clip-rule:evenodd;}
</style>
<g id="Page-1">
	<g id="index_white_card" transform="translate(-919.000000, -102.000000)">
		<g id="Group-3" transform="translate(919.000000, 102.000000)">
			<path id="Rectangle" class="st0" d="M1,0h2c0.6,0,1,0.4,1,1v2c0,0.6-0.4,1-1,1H1C0.4,4,0,3.6,0,3V1C0,0.4,0.4,0,1,0z"/>
			<path id="Rectangle-Copy-7" class="st0" d="M8,0h13c0.6,0,1,0.4,1,1v2c0,0.6-0.4,1-1,1H8C7.4,4,7,3.6,7,3V1C7,0.4,7.4,0,8,0z"/>
			<path id="Rectangle-Copy-8" class="st0" d="M8,7h13c0.6,0,1,0.4,1,1v2c0,0.6-0.4,1-1,1H8c-0.6,0-1-0.4-1-1V8C7,7.4,7.4,7,8,7z"/>
			<path id="Rectangle-Copy-9" class="st0" d="M8,14h13c0.6,0,1,0.4,1,1v2c0,0.6-0.4,1-1,1H8c-0.6,0-1-0.4-1-1v-2
				C7,14.4,7.4,14,8,14z"/>
			<path id="Rectangle-Copy-6" class="st0" d="M1,7h2c0.6,0,1,0.4,1,1v2c0,0.6-0.4,1-1,1H1c-0.6,0-1-0.4-1-1V8C0,7.4,0.4,7,1,7z"/>
			<path id="Rectangle-Copy-10" class="st0" d="M1,14h2c0.6,0,1,0.4,1,1v2c0,0.6-0.4,1-1,1H1c-0.6,0-1-0.4-1-1v-2
				C0,14.4,0.4,14,1,14z"/>
		</g>
	</g>
</g>
</svg>
