<svg xmlns="http://www.w3.org/2000/svg" width="13.803" height="12.883" viewBox="0 0 13.803 12.883"><defs><style>.a{fill:#d4d4d4;}</style></defs><g transform="translate(0 -18.271)"><g transform="translate(0 18.271)"><path class="a" d="M38.385,21.952a1.841,1.841,0,1,0-1.3-.539A1.773,1.773,0,0,0,38.385,21.952Z" transform="translate(-35.625 -18.271)"/><path class="a" d="M165.258,96.076a2.76,2.76,0,1,0-.809-1.952A2.66,2.66,0,0,0,165.258,96.076Z" transform="translate(-160.308 -89.523)"/><path class="a" d="M367.293,21.952a1.841,1.841,0,1,0-1.3-.539A1.773,1.773,0,0,0,367.293,21.952Z" transform="translate(-356.25 -18.271)"/><path class="a" d="M382.232,164.456a1.376,1.376,0,0,0-.313.151,4.719,4.719,0,0,1-.7.306,2.525,2.525,0,0,1-.855.155,2.886,2.886,0,0,1-.956-.165,3.613,3.613,0,0,1,.036.474,3.164,3.164,0,0,1-.583,1.84,2.479,2.479,0,0,1,1.905.92h.963a1.648,1.648,0,0,0,.992-.291.985.985,0,0,0,.4-.852Q383.123,164.456,382.232,164.456Z" transform="translate(-369.32 -160.775)"/><path class="a" d="M83.087,294.951a6.087,6.087,0,0,0-.191-.78,3.7,3.7,0,0,0-.309-.7,2.534,2.534,0,0,0-.446-.582,1.878,1.878,0,0,0-.615-.385,2.159,2.159,0,0,0-.8-.144.847.847,0,0,0-.309.155q-.237.154-.525.345a3.338,3.338,0,0,1-3.48,0q-.288-.19-.525-.345a.847.847,0,0,0-.309-.155,2.16,2.16,0,0,0-.8.144,1.875,1.875,0,0,0-.615.385,2.528,2.528,0,0,0-.446.582,3.7,3.7,0,0,0-.309.7,6.106,6.106,0,0,0-.191.78,7.309,7.309,0,0,0-.1.784q-.025.363-.025.744a1.791,1.791,0,0,0,.525,1.362,1.94,1.94,0,0,0,1.395.5h6.283a1.94,1.94,0,0,0,1.395-.5,1.791,1.791,0,0,0,.525-1.362q0-.381-.025-.744A7.435,7.435,0,0,0,83.087,294.951Z" transform="translate(-71.25 -285.457)"/><path class="a" d="M4.263,167.216a3.165,3.165,0,0,1-.582-1.84,3.59,3.59,0,0,1,.036-.474,2.889,2.889,0,0,1-.956.165,2.524,2.524,0,0,1-.855-.155,4.725,4.725,0,0,1-.7-.306,1.372,1.372,0,0,0-.313-.151q-.891,0-.891,2.538a.985.985,0,0,0,.4.852,1.648,1.648,0,0,0,.992.291h.963A2.479,2.479,0,0,1,4.263,167.216Z" transform="translate(0 -160.774)"/></g></g></svg>