<svg xmlns="http://www.w3.org/2000/svg" xmlns:xlink="http://www.w3.org/1999/xlink" width="25" height="25" viewBox="0 0 25 25"><defs><style>.a,.c{fill:#6c6e7f;}.a{stroke:#707070;}.b{clip-path:url(#a);}</style><clipPath id="a"><rect class="a" width="25" height="25" transform="translate(392 245)"/></clipPath></defs><g class="b" transform="translate(-392 -245)"><path class="c" d="M23.017,2.177a6.723,6.723,0,0,0-5-2.177,6.289,6.289,0,0,0-3.928,1.356A8.037,8.037,0,0,0,12.5,3.014a8.032,8.032,0,0,0-1.588-1.658A6.288,6.288,0,0,0,6.984,0a6.723,6.723,0,0,0-5,2.177A7.815,7.815,0,0,0,0,7.513,9.305,9.305,0,0,0,2.48,13.6,52.871,52.871,0,0,0,8.686,19.43c.86.733,1.835,1.564,2.847,2.449a1.468,1.468,0,0,0,1.933,0c1.012-.885,1.988-1.716,2.848-2.45A52.847,52.847,0,0,0,22.521,13.6,9.3,9.3,0,0,0,25,7.513,7.814,7.814,0,0,0,23.017,2.177Zm0,0" transform="translate(392 246.379)"/></g></svg>