<svg xmlns="http://www.w3.org/2000/svg" width="255.449" height="263.407" viewBox="0 0 255.449 263.407">
  <g id="Group_361" data-name="Group 361" transform="matrix(0.998, -0.07, 0.07, 0.998, -556.091, -486.824)">
    <path id="Path_606" data-name="Path 606" d="M727.455,764.461s-32.027,2.229-47.678,0L669.21,730.873a29.941,29.941,0,0,0-11.7-18.545c-2.506,2.39-9.186,4.026-15.157,5.059l.647-3.723-17.644-8.071s-.423,1.466-1.056,3.673c-6.613-.945-15.87-2.739-18.924-5.652a29.94,29.94,0,0,0-11.7,18.545l-10.567,33.588c-15.65,2.229-47.677,0-47.677,0l-.536,14.118s45.505,14.762,57.24,7.543c9.272-5.7,25.222-20.99,30.671-30.288,1.1-1.873,1.5-4.188,3.427-7.979h0s7.76-7.4,13.015,13.165a19.456,19.456,0,0,0,.823,3.528c4.906,9.594,21.4,24.585,30.67,30.288,11.736,7.219,57.24-7.543,57.24-7.543Z" fill="#262727"/>
    <g id="Group_337" data-name="Group 337">
      <g id="Group_336" data-name="Group 336">
        <g id="Group_335" data-name="Group 335">
          <g id="Group_334" data-name="Group 334">
            <path id="Path_607" data-name="Path 607" d="M537.529,756.76a2.059,2.059,0,0,1,.924,2.525c-1.4,2.816-2.067,4.577-1.341,7.411.679,2.653,1.205,4.314-.692,4.239s-9.017,1.149-10.978,3.2c-4.749,4.955-13.461,15.629-18.533,12.768-4.747-2.678.318-9.3,6.634-19.332s4.06-15.261,9.776-17.906C526.275,748.294,533.994,754.491,537.529,756.76Z" fill="#070203"/>
          </g>
        </g>
      </g>
      <path id="Path_608" data-name="Path 608" d="M532.5,759.6a3.46,3.46,0,1,1-.942-4.8A3.46,3.46,0,0,1,532.5,759.6Z" fill="#070203"/>
      <path id="Path_609" data-name="Path 609" d="M505.045,783.819a3.325,3.325,0,0,0,1.864,3.08c3,1.694,7.282-1.357,11.259-5.157a19.523,19.523,0,0,0-1.081-2.353,19.812,19.812,0,0,0-4.916-5.9c5.344-8.1,9.776-15.658,10.413-18.107.553-2.124,2.744-3.7,5.262-4.841-1.84-.9-3.482-1.364-4.527-.881-5.716,2.645-3.464,7.881-9.776,17.906-1.051,1.67-2.064,3.24-3.006,4.718h0c-.07.108-.137.215-.2.322l-.078.121q-.36.568-.7,1.116l-.025.039c-.716,1.141-1.373,2.218-1.951,3.229l-.006.011a29.255,29.255,0,0,0-1.844,3.71v0a8.35,8.35,0,0,0-.678,2.98v0Z" fill="#070203"/>
    </g>
    <g id="Group_341" data-name="Group 341">
      <g id="Group_340" data-name="Group 340">
        <g id="Group_339" data-name="Group 339">
          <g id="Group_338" data-name="Group 338">
            <path id="Path_610" data-name="Path 610" d="M725.365,765.474a2.058,2.058,0,0,0-.924,2.524c1.4,2.817,2.066,4.578,1.341,7.412-.679,2.653-1.2,4.314.692,4.239s9.016,1.149,10.978,3.2c4.748,4.955,13.461,15.628,18.533,12.768,4.747-2.678-.319-9.3-6.634-19.332s-4.06-15.261-9.776-17.906C736.619,757.007,728.9,763.205,725.365,765.474Z" fill="#070203"/>
          </g>
        </g>
      </g>
      <path id="Path_611" data-name="Path 611" d="M730.4,768.314a3.46,3.46,0,1,0,.942-4.8A3.46,3.46,0,0,0,730.4,768.314Z" fill="#070203"/>
      <path id="Path_612" data-name="Path 612" d="M757.848,792.533a3.322,3.322,0,0,1-1.863,3.08c-3,1.694-7.283-1.358-11.26-5.157a19.535,19.535,0,0,1,1.082-2.353,19.8,19.8,0,0,1,4.916-5.9c-5.344-8.1-9.776-15.658-10.414-18.107-.552-2.124-2.743-3.7-5.262-4.841,1.841-.9,3.483-1.365,4.528-.881,5.716,2.645,3.464,7.881,9.776,17.906,1.051,1.67,2.063,3.24,3.006,4.718h0l.205.322.077.121q.36.568.705,1.115l.024.04c.716,1.141,1.373,2.218,1.952,3.229l.006.011a29.255,29.255,0,0,1,1.844,3.71v0a8.373,8.373,0,0,1,.678,2.98v0Z" fill="#070203"/>
    </g>
    <g id="Group_345" data-name="Group 345">
      <g id="Group_343" data-name="Group 343">
        <path id="Path_613" data-name="Path 613" d="M694.65,671.165l8.109,2.975c4.052,1.486,7.691-9.285,9.244-6.08l14.606-31.19a11.622,11.622,0,0,0,2.625-2.956c4.219-6.4,8.345-12.838,9.121-14.274-1.485-2.49-8.684,5.357-8.409,5.5-.4-.037,8.362-14.382,6.793-14.948-2.315-.744-10.865,11.9-10.526,12-.429.052,3.973-13.7,1.669-14.445-3.167,1.023-6.943,14.172-6.629,14.165-.315.1-.21-12.484-2.722-12.313-2.976,1.948-2.288,15.744-1.937,15.623,0-.007-3.431-1.192-5.6-1.922-1.492-.5-2.97.962-2.97.962s3.985,2.922,4.864,6.068a9.246,9.246,0,0,0,3.419,4.957l-14.687,21.85" fill="#cfa58c"/>
        <path id="Path_614" data-name="Path 614" d="M714.064,667.228l-5.337-7.507c-1.272-2.49-1.494-6.442-1.629-10.738l-5.481,8.155" fill="#cfa58c"/>
        <line id="Line_6" data-name="Line 6" x2="8.109" y2="2.975" transform="translate(694.65 671.165)" fill="#cfa58c"/>
        <g id="Group_342" data-name="Group 342">
          <path id="Path_615" data-name="Path 615" d="M719.573,625.448s3.415,1.428,3.12,4.987l5.1-3.4Z" fill="#cfa58c"/>
        </g>
      </g>
      <g id="Group_344" data-name="Group 344">
        <path id="Path_616" data-name="Path 616" d="M709.409,642.842l-6.418,8.528-30.1-12.223a18.209,18.209,0,0,0-20.491,2c-2.513,2.179-4.3,5.037-4,8.708.585,7.15,6.629,11.739,10.52,13.536,9.261,4.277,39.052,11.829,39.052,11.829,6.67,1.715,15.45-5.763,18.336-12.034l6.171-13.405Z" fill="#6585c2"/>
        <path id="Path_617" data-name="Path 617" d="M720.291,656.62s-7.963.9-15.762-8.062c0,0,2.109-5.7,4.363-6.595,0,0,10.4,5.663,15.552,6.244Z" fill="#7d98ce"/>
      </g>
    </g>
    <g id="Group_349" data-name="Group 349">
      <g id="Group_347" data-name="Group 347">
        <path id="Path_618" data-name="Path 618" d="M568.68,651.834l-8.637-.106c-4.316-.052-3.883-11.414-6.475-8.971l-2.55-34.346a11.625,11.625,0,0,1-1.4-3.7c-1.663-7.485-3.229-14.967-3.444-16.585,2.275-1.8,6.209,8.1,5.9,8.13.39.109-2.7-16.416-1.029-16.386,2.429.128,5.919,14.988,5.566,14.963.382.2,1.163-14.217,3.581-14.094,2.6,2.084,1.445,15.716,1.154,15.6.26.2,4.639-11.592,6.926-10.538,2.087,2.88-3.465,15.528-3.75,15.289,0-.006,3.63.108,5.92.2,1.573.063,2.434,1.957,2.434,1.957s-4.764,1.312-6.706,3.939a9.248,9.248,0,0,1-4.959,3.416l5.949,25.646" fill="#cfa58c"/>
        <path id="Path_619" data-name="Path 619" d="M551.938,641.246l7.659-5.116c2.075-1.874,3.689-5.489,5.344-9.456l2.22,9.572" fill="#cfa58c"/>
        <line id="Line_7" data-name="Line 7" x1="8.637" y1="0.106" transform="translate(560.043 651.728)" fill="#cfa58c"/>
        <g id="Group_346" data-name="Group 346">
          <path id="Path_620" data-name="Path 620" d="M561.659,600.24s-3.7.119-4.691,3.551l-3.558-4.99Z" fill="#cfa58c"/>
        </g>
      </g>
      <g id="Group_348" data-name="Group 348">
        <path id="Path_621" data-name="Path 621" d="M564.967,620.114l2.963,10.253,32.478-.711a18.21,18.21,0,0,1,18.438,9.162c1.573,2.931,2.223,6.238.636,9.561-3.091,6.474-10.372,8.611-14.648,8.906-10.177.7-40.7-2.843-40.7-2.843-6.844-.772-12.387-10.885-12.853-17.772l-1-14.724Z" fill="#6585c2"/>
        <path id="Path_622" data-name="Path 622" d="M549.894,629.116s7.12,3.678,17.6-1.924c0,0,.058-6.081-1.731-7.716,0,0-11.731,1.592-16.756.3Z" fill="#7d98ce"/>
      </g>
    </g>
    <path id="Path_623" data-name="Path 623" d="M636.353,627.862c-9.951.095-29.5,3.544-31.319,16.542-2.326,16.653-2.993,19.762-3.388,29.9h0s-6.971,40.008-7.346,45.264l4.761,3.87.107.072.065.042c.184.121.529.335,1.039.62.061.034.119.067.186.1.473.26,1.052.561,1.769.9.576.269,1.236.557,1.969.853.421.169.863.34,1.336.513.618.226,1.3.452,2,.676a60.937,60.937,0,0,0,13.07,2.527c1.42.125,2.979.388,4.541.432,1.742.048,3.572.041,5.491-.033l.033,0c.339-.013.694-.04,1.038-.058h0c.756-.039,1.518-.082,2.3-.142.342-.027.694-.062,1.041-.092.481-.042.957-.079,1.449-.13.363-.038.739-.088,1.108-.13q.636-.074,1.282-.157c.862-.111,1.741-.239,2.632-.377.4-.063.8-.12,1.206-.188,1.295-.217,2.61-.454,3.963-.732l.007,0c1.347-.276,2.731-.594,4.136-.936.433-.105.877-.223,1.316-.335,1.005-.256,2.021-.527,3.055-.818q.764-.215,1.538-.443c1.046-.308,2.11-.639,3.185-.984.477-.153.948-.3,1.431-.46,1.552-.516-.308-1.364,1.3-1.962l0-.166,0-.139c.034-1.68.658-5.067,1.18-14.163.044-.777.092-1.56.141-2.343l.03-.473q.074-1.133.154-2.261l.039-.551q.079-1.09.167-2.164c.016-.2.031-.391.048-.585.059-.717.122-1.422.187-2.12.021-.237.044-.472.066-.706.064-.661.13-1.311.2-1.946.024-.222.048-.44.072-.658.129-1.15.267-2.249.414-3.282l.026-.185c.062-.432.126-.848.192-1.255.014-.089.028-.182.043-.27.076-.464.155-.913.237-1.338.133-.693.307-1.548.5-2.541l.025-.128c.092-.464.187-.952.287-1.473.007-.036.014-.077.021-.113.1-.532.206-1.088.311-1.675.011-.057.021-.121.032-.179.1-.574.206-1.165.309-1.784.013-.08.026-.167.04-.247.1-.609.2-1.231.3-1.879.016-.1.03-.212.045-.315.093-.634.185-1.279.272-1.946.021-.156.039-.321.058-.478.079-.624.157-1.251.228-1.9,0-.026.006-.051.009-.078h0C668.527,651.335,661.349,627.623,636.353,627.862Z" fill="#5e7cac"/>
    <path id="Path_624" data-name="Path 624" d="M620.066,627.623c-3.358,3.147-9.682,12.414-10.8,17.61-.759,3.515-2.187,3.476,1.821,3.62,4.355.04,21.206-.514,24.314-4.073-3.7-2.31-12.393-8.156-15.132-11.694" fill="#7d98ce"/>
    <path id="Path_625" data-name="Path 625" d="M650.976,627.623c3.359,3.147,9.683,12.414,10.8,17.61.759,3.515,2.187,3.476-1.821,3.62-4.355.04-21.206-.514-24.314-4.073,3.7-2.31,12.392-8.156,15.132-11.694" fill="#7d98ce"/>
    <g id="Group_360" data-name="Group 360">
      <path id="Path_626" data-name="Path 626" d="M645.585,644.643s-48.339,9.229-45.323-56.976C602.7,534.117,644.4,535.7,644.4,535.7c51.638,7.279,36.4,47.62,31.7,69.495,0,0-3.644,32.292-30.52,39.45" fill="#e7cbba"/>
      <g id="Group_350" data-name="Group 350">
        <path id="Path_627" data-name="Path 627" d="M674.817,610.278c20.474-.6,18.956-27.122,3.645-19.656-3.455,1.819-10.4,8.544-9.737,13.411.3,1.9,4.012,5.054,6.092,6.245" fill="#e7cbba"/>
        <path id="Path_628" data-name="Path 628" d="M675.2,605.754a13.447,13.447,0,0,0,6.974-5.533c.494-.866,1.437-3.321-.2-3.678-1.461-.261-4.089,3.53-4.77,4.521a11.6,11.6,0,0,0-2.006,4.69" fill="#c09378"/>
      </g>
      <g id="Group_351" data-name="Group 351">
        <path id="Path_629" data-name="Path 629" d="M663.077,579.738c-3.491.135-6.966-.339-10.454-.1-3.36.232-7.177,3.308-10.394,1.783a1.253,1.253,0,0,1-.37-2.095c2.136-2.281,6.494-2.26,9.466-2.293,3.951-.043,7.872,1.607,11.735,2.2.268.041.318.492.017.5Z" fill="#3f3e3e"/>
      </g>
      <g id="Group_352" data-name="Group 352">
        <path id="Path_630" data-name="Path 630" d="M604,580.263a27.49,27.49,0,0,1,9.32-1.526,28.9,28.9,0,0,1,6.045.115c2.693.549,2.105,4.6-.638,4.23-1.583-.212-3.091-1.109-4.589-1.631-3.043-1.062-6.872-.013-10.052-.4a.413.413,0,0,1-.086-.789Z" fill="#3f3e3e"/>
      </g>
      <g id="Group_356" data-name="Group 356">
        <g id="Group_354" data-name="Group 354">
          <g id="Group_353" data-name="Group 353">
            <path id="Path_631" data-name="Path 631" d="M645.668,621.357s-2.941,5.118-13.77,5.771-12.838-5.18-12.838-5.18S630.164,626.768,645.668,621.357Z" fill="#cfa58c"/>
          </g>
          <path id="Path_632" data-name="Path 632" d="M645.668,621.357s-15.92,7.123-26.608.591c0,0,6.713-1.8,12.037,1.092C631.1,623.04,635.814,619.421,645.668,621.357Z" fill="#c09378"/>
        </g>
        <g id="Group_355" data-name="Group 355">
          <path id="Path_633" data-name="Path 633" d="M637.762,629.461c-2.948,1.518-7.372,1.632-10.555.9-.506-.118-.2-.716.325-.622,2.994.533,6.964.644,9.757-.712.459-.222.919.209.473.439Z" fill="#956b52"/>
        </g>
      </g>
      <path id="Path_634" data-name="Path 634" d="M661.349,592.111a84.949,84.949,0,0,0-10.534-2.5c-2.11-.362-5.207-.357-7.729,3.683C643.086,593.295,645.641,597.236,661.349,592.111Z" fill="#818181"/>
      <g id="Group_357" data-name="Group 357">
        <path id="Path_635" data-name="Path 635" d="M646.584,592.226a2.436,2.436,0,0,0,2.538,2.439,2.691,2.691,0,0,0,2.586-2.687,2.565,2.565,0,0,0-5.124.248Z" fill="#393939"/>
        <path id="Path_636" data-name="Path 636" d="M649.362,590.992a1.076,1.076,0,0,0-1.311.833,1.188,1.188,0,0,0,.882,1.387,1.131,1.131,0,0,0,.429-2.22Z" fill="#070203"/>
        <path id="Path_637" data-name="Path 637" d="M648.226,590.729a.665.665,0,0,0-.812.507.729.729,0,0,0,.541.854.694.694,0,1,0,.271-1.361Z" fill="#fff"/>
      </g>
      <path id="Path_638" data-name="Path 638" d="M622.259,593.162s-2.653-1.66-8.6-2.681c-2.109-.361-5.206-.356-7.728,3.684C605.926,594.165,606.551,598.286,622.259,593.162Z" fill="#818181"/>
      <g id="Group_358" data-name="Group 358">
        <path id="Path_639" data-name="Path 639" d="M609.424,593.1a2.436,2.436,0,0,0,2.538,2.439,2.691,2.691,0,0,0,2.586-2.687,2.565,2.565,0,1,0-5.124.248Z" fill="#393939"/>
        <path id="Path_640" data-name="Path 640" d="M612.2,591.862a1.077,1.077,0,0,0-1.312.833,1.189,1.189,0,0,0,.883,1.387,1.131,1.131,0,0,0,.429-2.22Z" fill="#070203"/>
        <path id="Path_641" data-name="Path 641" d="M611.065,591.6a.663.663,0,0,0-.811.507.73.73,0,0,0,.54.854.694.694,0,1,0,.271-1.361Z" fill="#fff"/>
      </g>
      <circle id="Ellipse_47" data-name="Ellipse 47" cx="1.694" cy="1.694" r="1.694" transform="translate(626.948 582.233)" fill="#9e8071"/>
      <circle id="Ellipse_48" data-name="Ellipse 48" cx="1.694" cy="1.694" r="1.694" transform="translate(614.493 605.346)" fill="#9e8071"/>
      <circle id="Ellipse_49" data-name="Ellipse 49" cx="1.125" cy="1.125" r="1.125" transform="translate(644.274 599.657)" fill="#9e8071"/>
      <path id="Path_642" data-name="Path 642" d="M679.939,557.331s.808,9.331-6.527,13.564c0,0,1.363,16.689,6.18,20.841C679.592,591.736,685.617,571.894,679.939,557.331Z" fill="#3f3e3e"/>
      <g id="Group_359" data-name="Group 359">
        <path id="Path_643" data-name="Path 643" d="M629.33,589.231c2.811,6.973,3.483,9.322-2.564,15.458-2.313,2.346-4.106,3.632-2.98,7.061,2.035,6.2,9.272,3.961,10.217-.648l-.894-.027c1.056,4.518,7.069,3.9,6.269-.824a.266.266,0,0,0-.525.049c.076,3.524-4.374,4.565-4.844.691-.046-.383-.694-.54-.858-.131-1.127,2.812-2.819,3.422-6.371,2.266-5.005-1.628-.011-6.424,1.7-8.263,5.751-6.185,4.544-9.221,1.129-15.731-.082-.155-.347-.068-.279.1Z" fill="#c09378"/>
      </g>
    </g>
  </g>
</svg>
