<svg xmlns="http://www.w3.org/2000/svg" width="74.387" height="60.2" viewBox="0 0 74.387 60.2">
  <g id="Group_117" data-name="Group 117" transform="translate(-273.389 -209.148)">
    <path id="Path_131" data-name="Path 131" d="M346.766,247.992c-2.168-6.01-5.338-12.546-9.6-17.363a43.1,43.1,0,0,0-4.9-4.669,6.142,6.142,0,0,1-1.366.37c-1.015.332-2.005.739-3,1.141a.584.584,0,0,1-.528-.035c-.06.028-.107.07-.17.093a.757.757,0,0,1-.949-.723,9.082,9.082,0,0,1,.434-2.4,9.991,9.991,0,0,0,.205-2.406c-3.2-2.139-6.543-4.063-9.725-5.839-6.15-3.433-19.9-10.963-27.424-1.635-3.8,9.348-1.035,22.9,2.7,30.575a44.658,44.658,0,0,0,29.316,23.556c9.2-1.068,16.4-3.291,20.967-6.274C347.935,258.981,348.79,253.6,346.766,247.992Z" fill="#999698"/>
    <g id="Group_116" data-name="Group 116">
      <path id="Path_132" data-name="Path 132" d="M285.819,248.975c3.558,2.756,4.978,7.428,8.428,10.367,5.208,4.436,8.865,7.5,11.938,9.98a116.351,116.351,0,0,0,15.575-.669A44.658,44.658,0,0,1,292.444,245.1c-3.734-7.678-6.5-21.227-2.7-30.575a15.345,15.345,0,0,0-1.266,1.82,70.567,70.567,0,0,0-13.468,29.994,6.194,6.194,0,0,1,.989-.315C279.327,245.29,283.244,246.98,285.819,248.975Z" fill="#878286"/>
      <path id="Path_133" data-name="Path 133" d="M293.521,268.544c4.427.454,8.65.7,12.664.778-3.073-2.476-6.73-5.544-11.938-9.98-3.45-2.939-4.87-7.611-8.428-10.367-2.575-2-6.492-3.685-9.819-2.954a6.194,6.194,0,0,0-.989.315,89.488,89.488,0,0,0-1.622,12.64C276.234,261.019,286.462,267.821,293.521,268.544Z" fill="#6d696d"/>
    </g>
    <path id="Path_134" data-name="Path 134" d="M324.208,221.711c-2.292-3.091-7.263-4.873-10.694-6.227a38.037,38.037,0,0,0-15.469-2.9c-1.967.089-8.029,3.379-7.225,4.622-3.268,6.8.466,8.985,3.374,17.452,2.646,7.7,6.621,13.479,13.224,7.795,3.467-2.985,10.524-9.542,14.442-11.817C327.374,227.436,326.509,224.814,324.208,221.711Z" fill="#a5a0a4"/>
    <path id="Path_135" data-name="Path 135" d="M340.776,235.451a36.346,36.346,0,0,0-9.128-10.68,39.245,39.245,0,0,1-3.771,1.744,36.923,36.923,0,0,0-.116-4.712,91.279,91.279,0,0,0-12.222-7.012c-5.714-2.607-12.934-7.056-19.367-5.2a20.668,20.668,0,0,0-5.992,3.258c-2.56,2.086-11.867,17.743-12.682,24.089,2.037-4.194,6.975-12,8.668-10.011,1.338,1.571,2.55,9.784,3.489,12.6,3.891,11.665,16.5,27.628,30.019,28.581-2.5-.785-9.77-5.1-10.447-5.521-7.424-4.557-12.735-13.139-15.635-21.7-2.056-6.07-4.081-14.633-.876-20.679a11.086,11.086,0,0,1,10.926-6.038c5.212.357,13.728,4.808,16.781,6.122,3.229,1.39,5.628,2.174,4.4,6.421-.321,1.112-2.325,3.022-2.966,3.93,2.469.066,6.471-2.017,9.042-2.377C331.566,229.12,337.418,235.649,340.776,235.451Z" fill="#bcb7bb"/>
  </g>
</svg>
