<svg xmlns="http://www.w3.org/2000/svg" width="265.568" height="299.873" viewBox="0 0 265.568 299.873">
  <g id="Group_189" data-name="Group 189" transform="translate(-129.175 -267.79)">
    <g id="Group_178" data-name="Group 178" transform="translate(199.744 419.516)">
      <g id="Group_176" data-name="Group 176" transform="translate(78.891)">
        <path id="Path_212" data-name="Path 212" d="M298.388,411.664a31.574,31.574,0,0,1,12.335,19.557l16.847,40.647c16.505,2.351,44.315,25.786,44.315,25.786l-4.186,9.177s-42.976-9.734-55.352-17.347C302.57,483.471,280,457.544,280,457.544l-9.1-39.032S293.185,416.628,298.388,411.664Z" transform="translate(-270.901 -411.664)" fill="#262727"/>
        <path id="Path_213" data-name="Path 213" d="M298.388,411.664a31.574,31.574,0,0,1,12.335,19.557l6.088,15.606c-3.057,7.9-9.414,17.858-21.853,26.99C287.041,465.629,280,457.544,280,457.544l-9.1-39.032S293.185,416.628,298.388,411.664Z" transform="translate(-270.901 -411.664)" fill="#1c1d1d"/>
        <g id="Group_175" data-name="Group 175" transform="translate(90.858 79.919)">
          <g id="Group_174" data-name="Group 174">
            <g id="Group_173" data-name="Group 173">
              <g id="Group_172" data-name="Group 172">
                <path id="Path_214" data-name="Path 214" d="M363.919,488.44a2.172,2.172,0,0,0-2.113,1.89c-.1,3.313-.35,5.284-2.433,7.561-1.948,2.13-3.263,3.415-1.461,4.287s7.818,5.547,8.626,8.425c1.956,6.969,4.762,21.224,10.9,21.082,5.746-.134,4.322-8.811,3.428-21.279s3.8-16.215-.2-21.513C378.595,486.152,368.335,488.085,363.919,488.44Z" transform="translate(-357.057 -487.447)" fill="#070203"/>
              </g>
            </g>
          </g>
          <path id="Path_215" data-name="Path 215" d="M366.667,493.472a3.65,3.65,0,1,0,3.262-4A3.65,3.65,0,0,0,366.667,493.472Z" transform="translate(-356.534 -487.338)" fill="#070203"/>
          <path id="Path_216" data-name="Path 216" d="M380.057,529.745a3.505,3.505,0,0,1-3.263,1.939c-3.635.084-6.1-4.88-7.915-10.389a20.473,20.473,0,0,1,2.176-1.652,20.879,20.879,0,0,1,7.5-3.047c-.949-10.19-1.319-19.422-.7-22.016.54-2.252-.715-4.806-2.492-7.117,2.16.077,3.918.46,4.65,1.429,4,5.3-.691,9.052.2,21.513.149,2.074.311,4.038.453,5.881h0c.01.135.021.268.031.4l.012.151q.054.707.1,1.388l0,.049c.1,1.417.176,2.745.212,3.974v.013a30.749,30.749,0,0,1-.128,4.368v0a8.82,8.82,0,0,1-.849,3.109l0,0Z" transform="translate(-356.412 -487.446)" fill="#070203"/>
        </g>
      </g>
      <g id="Group_177" data-name="Group 177" transform="translate(35.041 3.189)">
        <path id="Path_217" data-name="Path 217" d="M271.977,420.692c3.006.348,21.59-12.636,38.23-1.449,1.261.848,2.3,2.7,3.144,5a28.671,28.671,0,0,1-5.307,28.218L269.4,498.883a106.767,106.767,0,0,1-16.152,29.938c-3.912,5.177-15.588,19.316-15.588,19.316l-8.343-3.792,16.831-60.96Z" transform="translate(-229.32 -414.688)" fill="#262727"/>
        <path id="Path_218" data-name="Path 218" d="M266.227,429.759l3.735-9.067c3.006.348,21.59-12.636,38.23-1.449,1.261.848,2.3,2.7,3.144,5,.149.4.272.813.4,1.221A59.517,59.517,0,0,1,266.227,429.759Z" transform="translate(-227.306 -414.688)" fill="#262727"/>
      </g>
      <path id="Path_219" data-name="Path 219" d="M253.25,523.3c-3.912,5.177-15.588,19.316-15.588,19.316l-8.343-3.792,6.325-22.91c5.807,4.609,12.694,6.209,18.146,6.651C253.611,522.808,253.436,523.052,253.25,523.3Z" transform="translate(-194.279 -405.975)" fill="#262727"/>
      <path id="Path_220" data-name="Path 220" d="M197.776,535.293a5.852,5.852,0,0,1-1.272-1.512l-.019-.035a3.618,3.618,0,0,1-.177-.38c-.01-.023-.018-.046-.026-.07a3.057,3.057,0,0,1-.108-.351c-.008-.032-.016-.064-.022-.1a2.913,2.913,0,0,1-.047-.331c0-.039-.008-.079-.009-.118a2.923,2.923,0,0,1,0-.319c0-.045,0-.091.008-.136a3.1,3.1,0,0,1,.055-.316c.011-.047.017-.1.03-.145.028-.111.068-.222.109-.335.017-.044.028-.088.046-.132a4.625,4.625,0,0,1,.226-.478,3.685,3.685,0,0,1,.339-.5c.041-.051.088-.1.131-.146a3.464,3.464,0,0,1,.288-.3c.056-.051.116-.1.176-.148.1-.082.208-.16.318-.234.066-.044.134-.089.2-.13.119-.071.245-.136.373-.2.07-.034.137-.07.209-.1.159-.071.327-.133.5-.192.049-.017.094-.037.143-.053q.337-.108.7-.19c.062-.014.129-.024.192-.037.186-.038.372-.074.566-.1.094-.014.19-.025.285-.037.174-.022.35-.042.53-.058.1-.01.207-.017.312-.024.183-.013.371-.021.561-.029.1,0,.206-.007.31-.009.213,0,.43,0,.65,0,.084,0,.167,0,.252,0,.309.007.623.019.943.038l.037,0c.307.018.618.042.932.07.095.008.192.019.287.029.237.023.477.047.718.075l.326.039q.353.044.71.093l.324.045c.258.038.519.077.779.119l.245.039c4.411.721,9.051,1.976,12.3,2.7,3.034.676,10.245-2.18,11.925-3.285s2.216.605,3.223,3.246c1.076,2.822,2.761,3.961,5.753,5.6a2.027,2.027,0,0,1,.706,2.665c-1.178,2.51-2.943,7.375-4.994,10.627h.006c-.086.138-.175.268-.264.4-.053.08-.105.165-.159.243-.168.24-.336.466-.507.681-.061.078-.123.15-.186.225-.132.157-.266.306-.4.445-.055.057-.11.117-.166.172a5.425,5.425,0,0,1-.552.474c-.042.032-.085.056-.129.085a3.356,3.356,0,0,1-.461.269c-.055.026-.109.053-.163.076a2.338,2.338,0,0,1-.587.167c-6.808.872-7.967-4.841-19.834-9.954q-1.4-.6-2.72-1.161c-2.454-1.039-4.726-1.989-6.733-2.893l-.019-.008q-.938-.422-1.8-.833l0,0-.005,0q-1.137-.546-2.12-1.078l-.031-.017c-.649-.353-1.242-.706-1.776-1.057l-.014-.008,0,0-.012-.008a12.747,12.747,0,0,1-1.411-1.066Z" transform="translate(-196.092 -405.333)" fill="#070203"/>
    </g>
    <g id="Group_180" data-name="Group 180" transform="translate(129.175 396.753)">
      <path id="Path_221" data-name="Path 221" d="M205.853,419.086l-3.941,8.212c-1.97,4.1-12.641-1.363-11.458,2.2l-33.977-12.834a12.27,12.27,0,0,1-4.158-.3c-7.9-1.738-15.748-3.568-17.391-4.082-.709-2.974,10.5-2.337,10.4-2.028.277-.324-16.9-4.722-16.127-6.3,1.2-2.264,16.964,1.005,16.783,1.332.363-.276-13.078-7.434-11.885-9.692,3.147-1.555,15.671,5.607,15.428,5.833.309-.159-9.022-9.59-7-11.309,3.682-.716,13.308,10.218,12.952,10.384,0,0,1.718-3.423,2.822-5.572.759-1.476,2.953-1.457,2.953-1.457s-.864,5.139.786,8.163a9.754,9.754,0,0,1,1.061,6.261l27.17,5.715" transform="translate(-129.175 -390.079)" fill="#cfa58c"/>
      <path id="Path_222" data-name="Path 222" d="M185.648,429.28l-1.487-9.6c-.869-2.818-3.609-5.968-6.666-9.315l10.141,2.133" transform="translate(-126.538 -388.972)" fill="#cfa58c"/>
      <line id="Line_5" data-name="Line 5" x1="3.941" y2="8.212" transform="translate(72.737 29.007)" fill="#cfa58c"/>
      <g id="Group_179" data-name="Group 179" transform="translate(19.176 12.779)">
        <path id="Path_223" data-name="Path 223" d="M152.4,402.2s-1.531,3.591,1.31,6.064l-6.354,1.184Z" transform="translate(-147.359 -402.197)" fill="#cfa58c"/>
      </g>
    </g>
    <path id="Path_224" data-name="Path 224" d="M171.8,409.813l11.123,1.726,13.762-31.373a19.2,19.2,0,0,1,16.96-13.558c3.5-.2,6.953.647,9.426,3.643,4.815,5.835,3.621,13.748,2,17.968-3.854,10.043-20.819,37.659-20.819,37.659-3.781,6.2-15.917,7.007-22.709,4.389l-14.523-5.6Z" transform="translate(2.066 5.391)" fill="#303030"/>
    <path id="Path_225" data-name="Path 225" d="M304.1,409.621c.226.211.451.425.668.622.277.253.539.487.8.717.184.162.375.336.549.487.391.339.761.652,1.1.932.141.117.262.212.392.317.213.173.426.345.613.49.135.107.254.2.373.29.141.108.278.214.4.3l.27.2c.13.095.252.185.336.244l.066.048.156.109-.037.13-.023.079c-.066.223-.2.63-.413,1.206l-.08.21c-.2.531-.465,1.168-.813,1.927-.28.61-.615,1.291-1,2.028-.224.424-.462.863-.725,1.323-.344.6-.736,1.248-1.153,1.911a64.315,64.315,0,0,1-8.8,10.939c-1.058,1.068-2.133,2.343-3.36,3.442q-2.053,1.84-4.442,3.715l-.028.022c-.282.219-.586.44-.874.66h0c-.634.484-1.277.968-1.948,1.452-.293.212-.6.424-.9.636-.414.294-.824.588-1.255.883-.317.217-.654.433-.98.651q-.562.373-1.139.747c-.77.5-1.564.994-2.375,1.491-.367.224-.724.447-1.1.671-1.19.708-2.41,1.412-3.688,2.11l-.007,0c-1.273.695-2.6,1.383-3.966,2.065-.421.211-.858.418-1.288.626q-1.474.718-3.016,1.425-.762.346-1.54.691c-1.052.465-2.133.924-3.234,1.378-.488.2-.966.406-1.465.605-1.6.642-3.239,1.276-4.943,1.893l-.116-.132-.1-.11c-1.172-1.329-3.982-3.63-10.6-10.594q-.849-.894-1.711-1.79l-.347-.361q-.83-.862-1.664-1.715l-.407-.417q-.807-.823-1.609-1.627l-.437-.44q-.805-.8-1.6-1.578c-.178-.176-.358-.35-.535-.524q-.753-.732-1.486-1.43c-.17-.162-.339-.322-.506-.48-.888-.838-1.747-1.628-2.57-2.36-.049-.044-.1-.087-.147-.131-.345-.306-.68-.6-1.009-.879l-.218-.188c-.379-.322-.749-.63-1.1-.915-.579-.467-1.3-1.037-2.138-1.7l-.108-.085c-.39-.311-.8-.638-1.235-.99l-.094-.076c-.444-.36-.907-.736-1.392-1.136-.047-.04-.1-.084-.148-.123-.474-.391-.96-.8-1.465-1.225l-.2-.172c-.5-.421-1-.854-1.52-1.31-.082-.072-.168-.15-.25-.223-.507-.447-1.021-.9-1.546-1.382-.122-.111-.249-.232-.372-.345-.488-.448-.979-.9-1.477-1.374l-.061-.056v0c-14.93-14.191-33.718-39.682-8.9-67.782,6.948-7.867,23.153-11.77,36.479-8.03,18.325,5.142,35.233,15.9,45.016,40.825a67.972,67.972,0,0,0,4.982,10.1c.2.339.413.658.619.989.366.586.732,1.169,1.1,1.731.277.419.558.822.837,1.225.31.447.619.889.931,1.317.276.381.553.757.83,1.124.33.437.659.858.988,1.275.26.329.522.665.781.982.378.462.751.9,1.123,1.332" transform="translate(3.652 4.278)" fill="#262727"/>
    <path id="Path_226" data-name="Path 226" d="M202.879,370.217s.117,15.493,25.014,41.322c0,0,2.656-15.607-3.232-53.532l-13.558,2.34Z" transform="translate(4.022 4.924)" fill="#d3d3d3"/>
    <path id="Path_227" data-name="Path 227" d="M203.231,368.2s1.23,11.448,14.73,21.131c0,0,9.038-1.05,7.052-29.05l-13.558,1.518Z" transform="translate(4.042 5.047)" fill="#cfa58c"/>
    <path id="Path_228" data-name="Path 228" d="M173.848,426.058s6.683-5.173,5.985-17.685c0,0-5.788-2.76-8.147-1.776,0,0-3.694,11.926-7.165,16.156Z" transform="translate(1.929 7.564)" fill="#d3d3d3"/>
    <path id="Path_229" data-name="Path 229" d="M293.428,411.181" transform="translate(8.964 7.825)" fill="#5e7cac"/>
    <path id="Path_230" data-name="Path 230" d="M257.644,411.934l-1.53-2.4a1.881,1.881,0,0,1,.909-2.731l3.572-1.539a3.122,3.122,0,0,1,2.653.077l3.61,1.852,7.556-24.733-27.223-12.133a16.969,16.969,0,0,1-10.454-16.092c.127-3.1,1.172-6.06,4.021-7.975,5.549-3.731,14.39,2.94,14.39,2.94l30.975,22.354a13.063,13.063,0,0,1,3.822,16.431l-12.936,25.724a37.139,37.139,0,0,0-2.124,5.155l-.969,2.97a6.521,6.521,0,0,1-3.641,3.936l-1.091.469a4.729,4.729,0,0,1-4.642-.485l-2.35-1.714a5.594,5.594,0,0,0-3.877-1.023l-3.272.342a2.248,2.248,0,0,1-2.3-1.283l-.551-1.231a2.854,2.854,0,0,1,.458-3.019Z" transform="translate(5.869 4.221)" fill="#ddc0af"/>
    <path id="Path_231" data-name="Path 231" d="M282.544,376.843a7.038,7.038,0,0,1,1.494-6.339,13.022,13.022,0,0,1,4.768,11.572A7.163,7.163,0,0,1,282.544,376.843Z" transform="translate(8.358 5.606)" fill="#e7cbba" opacity="0.54"/>
    <path id="Path_232" data-name="Path 232" d="M223.421,360.447s12.854-11.467,14.042-6.62c0,0,1.657,20.582-3.391,31.645,0,0,3.869,5.805,3.378,6.65-1.146,1.969-1.258,11.216-10.677,19.71C226.772,411.833,226.879,373.168,223.421,360.447Z" transform="translate(5.143 4.63)" fill="#484948"/>
    <path id="Path_233" data-name="Path 233" d="M270.679,396.207l2.557-9.925-27.2-15.272a17.487,17.487,0,0,1-10.771-16.58c.131-3.191,1.207-6.243,4.143-8.216,5.718-3.843,12.781-2.054,16.46-.21,8.757,4.389,32.268,22.228,32.268,22.228,5.282,3.981,4.927,15.049,1.949,20.971l-6.366,12.661Z" transform="translate(5.789 4.156)" fill="#303030"/>
    <path id="Path_234" data-name="Path 234" d="M200.04,367.9s-1.046,12.888,0,13.57c0,0,3.674,5.076,7.877,7.512,0,0-.891,4.3,0,5.047s6.317,9.883,20.157,17.041c0,0-20.306-24.315-22.533-31.59l-2.481-12.9Z" transform="translate(3.842 5.391)" fill="#484948"/>
    <g id="Group_188" data-name="Group 188" transform="translate(153.59 267.789)">
      <path id="Path_235" data-name="Path 235" d="M255.5,304.888s13.358,28.967,4.748,36.688c0,0-9.02,15.144-32.124,10.987l9.066-21.067,8.9-8" transform="translate(-148.19 -265.765)" fill="#110611"/>
      <path id="Path_236" data-name="Path 236" d="M158.086,312.477s-23.427,40.2,24.215,50.2l4.312-45.509-17.143-16.4Z" transform="translate(-152.326 -265.99)" fill="#110611"/>
      <path id="Path_237" data-name="Path 237" d="M212.214,374.408s-54.436,7.416-46.092-56.025c6.594-50.132,46.873-49.261,46.873-49.261,54.389,6.525,38.062,44.639,32.966,65.284,0,0-.481,35.533-33.746,40" transform="translate(-151.621 -267.717)" fill="#ddc0af"/>
      <g id="Group_181" data-name="Group 181" transform="translate(19.959 45.029)">
        <path id="Path_238" data-name="Path 238" d="M171.4,312.682a36.84,36.84,0,0,1,8.681-1.72,46.694,46.694,0,0,1,6.012-.467c2.849.084,3.664,2.515.827,2.542a47.053,47.053,0,0,1-5.1-.553c-3.373-.354-6.794.6-10.068.655-.428.006-.674-.336-.356-.457Z" transform="translate(-171.252 -310.488)" fill="#110611"/>
      </g>
      <g id="Group_182" data-name="Group 182" transform="translate(55.266 44.033)">
        <path id="Path_239" data-name="Path 239" d="M228.637,310.305a56.567,56.567,0,0,0-12.123-.735,73.848,73.848,0,0,0-8.334.365c-3.926.543-4.847,3.6-.93,3.2,2.26-.234,4.709-.988,6.986-1.455,4.624-.949,9.425-.326,13.948-.766.592-.058.9-.51.455-.605Z" transform="translate(-204.733 -309.544)" fill="#110611"/>
      </g>
      <g id="Group_183" data-name="Group 183" transform="translate(10.734 52.479)">
        <path id="Path_240" data-name="Path 240" d="M202.428,326.416s-1.036-5.831,1.944-7,23.963-2.2,27.072,0,2.072,6.091,1.944,7-1.727,8.313-8.722,8.7-14.205.623-16.926-.672S202.428,326.416,202.428,326.416Z" transform="translate(-160.336 -317.522)" fill="#b5d2de"/>
        <path id="Path_241" data-name="Path 241" d="M207.739,334.41c2.625,1.25,9.432,1.074,16.192.71-5.769-5.748-11.788-11.754-16.362-16.339a16.362,16.362,0,0,0-3.2.6c-2.979,1.166-1.944,7-1.944,7S205.019,333.114,207.739,334.41Z" transform="translate(-160.336 -317.486)" fill="#a4c0ce"/>
        <path id="Path_242" data-name="Path 242" d="M195.268,326.416s1.037-5.831-1.943-7-23.964-2.2-27.073,0-2.072,6.091-1.943,7,1.726,8.313,8.721,8.7,14.205.623,16.926-.672S195.268,326.416,195.268,326.416Z" transform="translate(-162.421 -317.522)" fill="#b5d2de"/>
        <path id="Path_243" data-name="Path 243" d="M164.31,326.4c.129.9,1.726,8.313,8.721,8.7,5.66.314,11.42.514,14.87-.1-5.927-5.906-12.1-12.07-16.693-16.671-2.365.2-4.2.539-4.955,1.076C163.144,321.61,164.18,325.5,164.31,326.4Z" transform="translate(-162.421 -317.51)" fill="#a4c0ce"/>
        <path id="Path_244" data-name="Path 244" d="M221.48,320.052s6.2-.525,8.031,1.1,1.056,5.066.713,5.067c-1.338,0-.907-2.045-3.174-2.348-1.373-.184-.648-1.943-1.943-2.4S218.571,320.125,221.48,320.052Z" transform="translate(-159.334 -317.421)" fill="#ecf3f4"/>
        <path id="Path_245" data-name="Path 245" d="M183.525,320.052s6.2-.525,8.032,1.1,1.056,5.066.712,5.067c-1.338,0-.907-2.045-3.173-2.348-1.374-.184-.648-1.943-1.944-2.4S180.616,320.125,183.525,320.052Z" transform="translate(-161.405 -317.421)" fill="#ecf3f4"/>
        <path id="Path_246" data-name="Path 246" d="M237.4,320.3H235.51a5.521,5.521,0,0,0-1.523-1.372c-3.8-2.341-24.915-1.206-27.7-.118a3.666,3.666,0,0,0-1.2.773,33.78,33.78,0,0,0-4.906-.168,33.775,33.775,0,0,0-4.906.168,3.688,3.688,0,0,0-1.2-.773c-2.784-1.088-23.9-2.223-27.7.118a5.506,5.506,0,0,0-1.523,1.372h-1.886c-.608,0-.608,2.431,0,2.431h.909a16.355,16.355,0,0,0,.113,3.66c.032.336.369.5.759.547l.39-.132v0c-.046-.208-.079-.378-.092-.468-.017-.111-.046-.269-.08-.464a10.439,10.439,0,0,1-.185-2.014,5.262,5.262,0,0,1,2.183-4.431,2.376,2.376,0,0,1,.334-.192c.077-.037.171-.071.258-.105.056-.021.1-.045.165-.066,4.787-1.684,23.215-.716,25.977.365,2.941,1.151,1.918,6.909,1.918,6.909s-.091.234-.252.614l.414.2a.925.925,0,0,0,.846-.293,9.163,9.163,0,0,0-.163-5.337c1.159-.081,2.507-.08,3.635-.052h.171c1.127-.028,2.476-.03,3.634.052a9.15,9.15,0,0,0-.162,5.337.971.971,0,0,0,.921.292l.341-.187c-.163-.388-.253-.622-.253-.622s-.037-.2-.076-.539a14.325,14.325,0,0,1-.094-1.9c.033-1.718.433-3.824,2.088-4.471l.011,0a4.627,4.627,0,0,1,.448-.137l.127-.032c4.407-1.074,23.233-1.893,26.149.173,3.07,2.175,2.046,6.015,1.918,6.909l.613.526a.582.582,0,0,0,.446-.471,16.356,16.356,0,0,0,.113-3.66h.909C238,322.728,238,320.3,237.4,320.3Z" transform="translate(-162.505 -317.553)" fill="#262727"/>
      </g>
      <path id="Path_247" data-name="Path 247" d="M233.52,320.155h12.617l-.342,2.509-12.276-.079" transform="translate(-147.895 -264.932)" fill="#262727"/>
      <path id="Path_248" data-name="Path 248" d="M215.294,280.377c-.255,12.516,3.427,23.177-44.407,35.54,0,0-16.766,5.687-6.133,13.168l-8.842-7.6s11.516-55.923,51.484-52.079C207.4,269.407,215.5,270.186,215.294,280.377Z" transform="translate(-152.131 -267.712)" fill="#110611"/>
      <path id="Path_249" data-name="Path 249" d="M209.268,279.762s29.2,8.313,33.85,33.057c0,0,3.788,12.623.689,21.66l14.455-19.01s-.277-13.084-10.553-27.5c-9.239-12.961-24.612-24.655-42.976-18.487Z" transform="translate(-149.466 -267.789)" fill="#110611"/>
      <path id="Path_250" data-name="Path 250" d="M255.491,313" transform="translate(-146.696 -265.322)" fill="#110611"/>
      <path id="Path_251" data-name="Path 251" d="M196.255,328.014c-1.8,8.695-3.114,6.6-4.032,15.465-.446,4.309,2.559,5.875,6.984,5.1a.562.562,0,0,0,.005-1.1c-8.093-1.168-4.413-8.7-2.73-13.462,1.861-5.272-.118-.369.675-5.89.068-.467-.808-.575-.9-.116Z" transform="translate(-150.152 -264.519)" fill="#956b52"/>
      <g id="Group_187" data-name="Group 187" transform="translate(39.035 87.519)">
        <g id="Group_185" data-name="Group 185">
          <g id="Group_184" data-name="Group 184" transform="translate(0 0.601)">
            <path id="Path_252" data-name="Path 252" d="M189.341,351.349s2.053,5.4,9.612,6.087,8.962-5.463,8.962-5.463S200.164,357.055,189.341,351.349Z" transform="translate(-189.341 -351.349)" fill="#cfa58c"/>
          </g>
          <path id="Path_253" data-name="Path 253" d="M189.341,351.38s11.113,7.513,18.574.624c0,0-4.685-1.9-8.4,1.152C199.513,353.156,196.22,349.338,189.341,351.38Z" transform="translate(-189.341 -350.779)" fill="#c09378"/>
        </g>
        <g id="Group_186" data-name="Group 186" transform="translate(5.392 8.62)">
          <path id="Path_254" data-name="Path 254" d="M194.582,359.48a8.166,8.166,0,0,0,7.367.944c.353-.123.142-.755-.227-.655-2.09.562-4.862.678-6.811-.751a.284.284,0,1,0-.329.462Z" transform="translate(-194.454 -358.953)" fill="#956b52"/>
        </g>
      </g>
    </g>
    <path id="Path_255" data-name="Path 255" d="M285.761,393.785s-4.091-6.517-15.492-7c0,0-3.018,5-2.338,7.224,0,0,10.478,4.412,14,7.936Z" transform="translate(7.567 6.494)" fill="#d3d3d3"/>
  </g>
</svg>
