<svg xmlns="http://www.w3.org/2000/svg" width="251.521" height="297.099" viewBox="0 0 251.521 297.099">
  <g id="Group_113" data-name="Group 113" transform="translate(-297.754 -30.441)">
    <path id="Path_90" data-name="Path 90" d="M461.342,257.8l-2.183-3.034h0l-.028-.038L453.873,243.1h0l-8.572-18.95-17.413-33.277h0l-24.295,45.1,20.675,15.9h0l8.023,8.446h0l7.689,8.841a58.634,58.634,0,0,0,21.832,23.437c5.664,3.465,8.855,8.845,15.913,11.6l9.822-6Z" transform="translate(4.118 6.242)" fill="#262727"/>
    <path id="Path_91" data-name="Path 91" d="M521.067,305.079a6.756,6.756,0,0,0,1.679-1.284l.028-.031a4.173,4.173,0,0,0,.275-.346l.044-.065a3.134,3.134,0,0,0,.2-.328c.017-.03.032-.061.047-.092a3.005,3.005,0,0,0,.13-.319c.012-.038.027-.077.038-.115a2.89,2.89,0,0,0,.072-.316c.008-.045.019-.089.024-.135a2.978,2.978,0,0,0,.021-.321c0-.049.005-.1,0-.148a3.362,3.362,0,0,0-.031-.349c-.006-.047-.007-.091-.016-.138a4.04,4.04,0,0,0-.117-.508,3.157,3.157,0,0,0-.227-.554c-.029-.057-.066-.11-.1-.166a3.285,3.285,0,0,0-.224-.339c-.046-.06-.1-.117-.146-.176a3.864,3.864,0,0,0-.272-.284c-.057-.054-.116-.109-.179-.161-.106-.09-.22-.176-.338-.259-.063-.045-.125-.09-.191-.134-.148-.095-.305-.184-.468-.271-.047-.024-.088-.051-.135-.075q-.323-.162-.679-.3c-.061-.025-.127-.046-.189-.07-.182-.068-.367-.133-.56-.194-.092-.029-.189-.056-.285-.083-.174-.051-.351-.1-.533-.144-.1-.026-.21-.051-.316-.075-.187-.043-.378-.082-.572-.12-.1-.021-.21-.042-.318-.06-.218-.039-.443-.074-.669-.108l-.261-.039q-.482-.065-.983-.117l-.038,0c-.321-.033-.648-.06-.98-.085-.1-.007-.2-.012-.3-.019-.25-.017-.5-.032-.758-.044-.115-.006-.231-.01-.347-.016q-.374-.014-.754-.025l-.344-.008q-.415-.008-.834-.01l-.262,0c-4.726-.011-9.818.465-13.347.646-3.294.168-10.044-3.836-11.511-5.2s-2.432.234-4.11,2.676c-1.793,2.61-3.809,3.457-7.293,4.589a2.14,2.14,0,0,0-1.373,2.516c.609,2.672,1.252,7.767,2.581,11.315l-.006,0c.056.151.116.293.175.438.036.087.07.18.106.265.114.266.235.515.358.756.045.087.091.168.137.252.1.178.2.345.305.5.043.065.085.134.129.2a5,5,0,0,0,.454.559c.036.038.075.07.112.1a3.282,3.282,0,0,0,.41.343c.05.034.1.07.151.1a2.4,2.4,0,0,0,.565.262c6.815,1.978,9.395-3.473,22.877-6.573,1.058-.243,2.084-.474,3.088-.7,2.784-.623,5.358-1.189,7.649-1.752l.021-.005q1.071-.263,2.056-.527l.005,0h.006c.871-.235,1.687-.472,2.448-.716l.036-.011c.755-.243,1.452-.492,2.088-.753l.016-.005,0,0,.013-.006a15.132,15.132,0,0,0,1.714-.821Z" transform="translate(6.838 10.16)" fill="#070203"/>
    <path id="Path_92" data-name="Path 92" d="M446.38,225.037s-19.867,16.879-26.048,22.778l-8.228-5.8-16.965-22.232,40.952-9.068Z" transform="translate(3.789 7.014)" fill="#1c1d1d"/>
    <path id="Path_93" data-name="Path 93" d="M418.107,245.617c.314-.482.615-.946.883-1.369a66.021,66.021,0,0,0,9.556-27.688c.009-.077.019-.157.027-.233.025-.225.046-.441.067-.656.009-.095.02-.191.029-.284.019-.2.035-.4.051-.59.008-.1.017-.193.024-.287.016-.186.028-.364.041-.539.006-.09.012-.181.019-.269.011-.172.021-.337.03-.5,0-.082.009-.164.013-.244.008-.155.016-.3.022-.448,0-.077.006-.153.009-.226.005-.141.01-.275.015-.406,0-.065,0-.128.005-.191,0-.127.007-.248.009-.363,0-.054,0-.1,0-.155,0-.113,0-.222,0-.323v-.469c0-.085,0-.166,0-.236v-.055c0-.22-.009-.346-.009-.346s-12.054-.944-22.689-2.581c-6.38-.982-12.249-2.213-14.7-3.638l-.047.046-.029.03c-.036.035-.083.083-.145.146l-.025.025c-.072.073-.159.163-.259.267l-.057.061q-.143.15-.318.337l-.044.048c-.137.146-.286.307-.446.485l-.037.042c-.149.164-.308.343-.474.532l-.075.086c-.365.416-.767.888-1.2,1.412-.032.041-.065.08-.1.12-.434.532-.893,1.114-1.368,1.742l-.1.13c-.233.31-.468.627-.705.957l-.018.025q-.371.516-.746,1.064l-.088.13q-.341.5-.681,1.024c-.026.041-.052.079-.078.118q-.372.578-.74,1.183l-.057.1q-.332.55-.656,1.121l-.112.2c-1.785,3.18-1.119,5.618-1.8,9.412a15.9,15.9,0,0,0-.244,2.5,18.4,18.4,0,0,0,.125,2.5c.823,7.042-1.24,15.351-1.762,22.464q-.262,3.558-.746,7.11l-.041.3h0l-1.35,1.317c-7.1.131-13.268-.839-18.938.358a103.591,103.591,0,0,1-19.733,2.307l-1.3.021-4.717,11.849,50.922,7.988a11.951,11.951,0,0,0,1.315.127h0a12.525,12.525,0,0,0,4.254-.536h.005a12.583,12.583,0,0,0,2.892-1.3l.037-.023a11.9,11.9,0,0,0,3.4-3.143c2.087-2.892,4.737-6.577,7.538-10.5h0c.509-.714,1.024-1.437,1.541-2.163l.17-.241q.764-1.074,1.53-2.156l.265-.375q.72-1.016,1.436-2.03l.128-.182q.72-1.021,1.428-2.03l.385-.55c.083-.118.167-.238.249-.356.272-.388.54-.772.808-1.154l.164-.235.15-.215c.1-.142.2-.282.294-.422q.609-.876,1.2-1.727l.247-.356h0l0-.007c.436-.63.859-1.243,1.273-1.846l.292-.426c.419-.611.828-1.21,1.219-1.786.043-.062.081-.122.124-.183.166-.245.33-.488.49-.726l.018-.026.55-.82.188-.282.009-.014c.226-.34.445-.668.656-.988l.039-.06h0l.29-.442C417.99,245.8,418.047,245.709,418.107,245.617Z" transform="translate(1.348 6.734)" fill="#262727"/>
    <path id="Path_94" data-name="Path 94" d="M336.3,269.572c-.353-3.024.676-4.79,2.686-7.581a2.006,2.006,0,0,0-.625-2.722c-2.315-1.761-6.314-5.4-9.805-7.456l.006,0c-.148-.087-.291-.165-.436-.246-.089-.05-.181-.1-.269-.152-.273-.145-.54-.276-.8-.4-.1-.044-.189-.082-.283-.123-.2-.085-.4-.162-.59-.23-.079-.028-.16-.058-.237-.083a6.351,6.351,0,0,0-.746-.19c-.055-.01-.107-.012-.162-.021a3.769,3.769,0,0,0-.561-.044c-.063,0-.128,0-.19,0a2.524,2.524,0,0,0-.631.1,8.56,8.56,0,0,0-3.8,2.3,9.687,9.687,0,0,0-.661.786c-2.087,2.766-3.16,6.976-7.805,12.78-.464.581-.964,1.177-1.505,1.789l-.009.011c-.659.747-1.3,1.468-1.933,2.173l-2.04,2.282-.126.14h0l-.268.3c-.181.2-.356.4-.533.6s-.371.418-.55.621l-.034.038c-.041.047-.077.089-.118.136-.339.386-.664.763-.984,1.133-.134.157-.272.316-.4.47-.322.378-.625.745-.924,1.107-.086.1-.182.215-.265.318l-.009.01c-.025.03-.047.059-.072.09-.127.157-.246.311-.369.465-.2.247-.385.492-.567.732-.119.158-.24.316-.353.471-.211.287-.408.567-.6.844-.107.156-.209.311-.307.464-.133.2-.268.411-.386.61l0,0c-.029.049-.051.095-.079.143-.081.138-.155.274-.228.409-.112.207-.213.408-.306.608-.058.123-.12.247-.17.368a7.567,7.567,0,0,0-.3.837c-.029.1-.045.2-.068.3-.028.123-.064.248-.083.368v0h0c-.011.075-.014.146-.021.219s-.016.142-.019.212a3.339,3.339,0,0,0,.039.7c.009.06.021.122.033.181a2.911,2.911,0,0,0,.23.656c.022.045.048.088.073.132a3.265,3.265,0,0,0,.451.625c.023.025.051.049.076.073a4.472,4.472,0,0,0,.722.6,3.886,3.886,0,0,0,.56.31c.062.029.129.05.192.076a4.3,4.3,0,0,0,.412.142c.078.022.157.039.237.057.135.03.272.055.411.074.083.011.167.022.252.029.147.012.3.017.449.018.081,0,.16,0,.242,0,.185-.006.374-.023.565-.045.052-.005.1-.007.153-.014q.369-.05.751-.134c.064-.015.131-.033.2-.049.193-.047.388-.1.585-.155.092-.028.187-.059.279-.089.176-.055.351-.114.53-.179.1-.036.2-.075.3-.113.18-.07.36-.142.542-.22.1-.041.194-.081.293-.125.2-.089.408-.186.614-.285.077-.036.153-.071.23-.108.287-.141.576-.289.866-.446l.033-.019q.418-.224.839-.469c.086-.049.172-.1.258-.152.21-.123.42-.248.632-.377l.294-.183q.305-.189.609-.385l.292-.188c.217-.142.435-.288.652-.434l.234-.157c3.781-2.573,7.519-5.726,10.212-7.795,2.516-1.932,10.648-2.484,12.756-2.213S336.636,272.4,336.3,269.572Z" transform="translate(0 8.555)" fill="#070203"/>
    <g id="Group_99" data-name="Group 99" transform="translate(453.306 130.873)">
      <g id="Group_97" data-name="Group 97" transform="translate(19.567 29.561)">
        <path id="Path_95" data-name="Path 95" d="M466.315,179.656l3.3,8.346c1.647,4.17,12.518-.451,11.1,2.968L515,180.744a12.067,12.067,0,0,0,4.107-.006c7.882-1.153,15.725-2.4,17.376-2.79.9-2.873-10.157-3.034-10.076-2.723-.25-.338,16.935-3.454,16.289-5.061-1.022-2.311-16.74-.2-16.585.13-.337-.3,13.373-6.386,12.359-8.688-2.983-1.751-15.791,4.408-15.569,4.647-.293-.178,9.538-8.79,7.669-10.621-3.568-.962-13.794,9.106-13.457,9.294.005,0-1.446-3.484-2.381-5.673-.642-1.5-2.8-1.639-2.8-1.639s.487,5.11-1.345,7.967a9.607,9.607,0,0,0-1.482,6.078l-27.1,3.708" transform="translate(-466.315 -155.567)" fill="#cfa58c"/>
        <path id="Path_96" data-name="Path 96" d="M482.2,191.3l2.135-9.328c1.052-2.707,3.964-5.611,7.2-8.684l-10.114,1.384" transform="translate(-465.727 -154.877)" fill="#cfa58c"/>
        <line id="Line_2" data-name="Line 2" x2="3.296" y2="8.346" transform="translate(0 24.089)" fill="#cfa58c"/>
        <g id="Group_96" data-name="Group 96" transform="translate(50.974 11.825)">
          <path id="Path_97" data-name="Path 97" d="M517.092,166.949s1.253,3.636-1.712,5.867l6.16,1.61Z" transform="translate(-515.38 -166.949)" fill="#cfa58c"/>
        </g>
      </g>
      <g id="Group_98" data-name="Group 98">
        <path id="Path_98" data-name="Path 98" d="M499.216,172.637l-11.051.915-11.32-31.795a18.919,18.919,0,0,0-15.713-14.512c-3.427-.443-6.878.148-9.517,2.918-5.143,5.4-4.524,13.254-3.23,17.514,3.082,10.14,17.814,38.468,17.814,38.468,3.28,6.359,15.148,8,22.007,5.906l14.663-4.478Z" transform="translate(-447.481 -127.112)" fill="#6585c2"/>
        <path id="Path_99" data-name="Path 99" d="M494.414,188.944s-6.2-5.552-4.64-17.8c0,0,5.882-2.305,8.13-1.173,0,0,2.794,11.979,5.906,16.379Z" transform="translate(-445.845 -125.457)" fill="#7d98ce"/>
      </g>
    </g>
    <path id="Path_100" data-name="Path 100" d="M384.278,203.937c-.116.281-.233.565-.346.829-.147.341-.287.657-.426.968-.1.22-.2.454-.3.661-.213.463-.419.895-.61,1.284-.08.162-.149.3-.223.445-.122.242-.242.483-.35.69-.078.15-.148.279-.218.41-.082.155-.163.305-.233.433-.056.1-.113.206-.161.29-.078.138-.152.268-.2.355l-.04.071-.1.16.086.1.053.061c.15.172.432.484.861.914.051.052.1.1.156.156.4.395.892.86,1.514,1.4.5.433,1.075.908,1.725,1.412.372.29.765.587,1.187.895.554.4,1.168.821,1.81,1.246a63.363,63.363,0,0,0,12.34,6.246c1.383.529,2.866,1.235,4.413,1.724,1.727.544,3.557,1.059,5.5,1.53l.034.008c.342.083.7.157,1.052.237h0c.766.178,1.54.35,2.339.513.349.071.711.136,1.066.2.492.1.979.193,1.485.283.374.065.764.123,1.144.185q.656.107,1.326.209c.893.134,1.808.257,2.738.373.42.052.831.107,1.258.156,1.356.152,2.737.289,4.168.4h.007c1.424.107,2.9.184,4.4.242.463.019.94.026,1.41.039,1.077.03,2.17.05,3.286.053q.824,0,1.663-.005c1.132-.009,2.289-.037,3.462-.076.52-.018,1.033-.029,1.56-.052,1.7-.075,3.425-.171,5.206-.309l.05-.166.043-.137c.512-1.668,2.1-4.876,5.211-13.814q.4-1.147.808-2.3c.055-.155.11-.311.165-.464q.394-1.111.8-2.215l.2-.54q.39-1.066.783-2.113c.071-.191.142-.383.214-.572q.394-1.049.79-2.064c.089-.23.179-.459.268-.687q.377-.963.752-1.888.131-.321.26-.636c.456-1.113.907-2.171,1.347-3.162.026-.059.053-.118.079-.177.185-.415.368-.812.549-1.2.04-.084.081-.174.121-.257.209-.443.416-.87.617-1.271.33-.653.748-1.459,1.227-2.395l.061-.121c.224-.437.459-.9.706-1.39l.054-.107c.252-.5.515-1.029.787-1.584l.083-.171c.266-.543.537-1.1.817-1.694.036-.076.074-.158.11-.235.273-.58.55-1.173.831-1.793.045-.1.089-.2.134-.3.274-.608.55-1.225.826-1.867.065-.151.13-.31.194-.461.257-.6.512-1.206.768-1.834.01-.025.022-.049.032-.075v0c7.635-18.8,14.143-49.311-19.542-64.452-9.43-4.239-25.561-1.158-36,7.61-14.358,12.06-25.165,28.578-23.82,54.926a66.679,66.679,0,0,1-.369,11.088c-.045.388-.1.759-.153,1.14-.09.675-.182,1.347-.288,2-.079.489-.166.964-.254,1.44-.1.527-.2,1.049-.3,1.56-.094.454-.189.9-.289,1.346-.118.526-.242,1.038-.369,1.546-.1.4-.2.809-.3,1.2-.151.566-.309,1.11-.468,1.651" transform="translate(3.242 3.276)" fill="#5e7cac"/>
    <path id="Path_101" data-name="Path 101" d="M389.59,204.269" transform="translate(3.573 6.763)" fill="#5e7cac"/>
    <path id="Path_102" data-name="Path 102" d="M456.537,128.75c-4.674,1.011-11.466,3.367-15.242,7.4-2.554,2.727-3.806,1.928-.311,4.2,3.86,2.362,19.171,10.868,23.842,9.357-2.064-4.035-6.686-13.887-7.238-18.5" transform="translate(5.489 3.825)" fill="#7d98ce"/>
    <path id="Path_103" data-name="Path 103" d="M423.4,124.706c-2.814,3.866-7.461,14.555-7.593,20.076-.089,3.736-1.554,3.974,2.564,3.339,4.452-.807,21.54-4.658,24.017-8.9-4.226-1.635-14.236-5.908-17.721-8.984" transform="translate(4.58 3.667)" fill="#7d98ce"/>
    <g id="Group_101" data-name="Group 101" transform="translate(364.055 125.432)">
      <g id="Group_100" data-name="Group 100" transform="translate(0.429 2.22)">
        <path id="Path_104" data-name="Path 104" d="M385.528,183.558l2.142-1.807a1.853,1.853,0,0,0-.055-2.835l-2.909-2.494a3.075,3.075,0,0,0-2.518-.7l-3.937.684.142-25.477,29.161-3.431A16.72,16.72,0,0,0,422.1,135.421c.788-2.95.674-6.042-1.444-8.679-4.126-5.135-14.4-1.452-14.4-1.452l-35.684,11.945a12.87,12.87,0,0,0-8.412,14.334l4.627,27.986a36.444,36.444,0,0,1,.487,5.471l.04,3.077a6.424,6.424,0,0,0,2.272,4.769l.889.763a4.658,4.658,0,0,0,4.508.9l2.713-.923a5.509,5.509,0,0,1,3.945.173l2.978,1.281a2.217,2.217,0,0,0,2.544-.531l.879-1a2.813,2.813,0,0,0,.454-2.974Z" transform="translate(-361.985 -124.011)" fill="#e7cbba"/>
        <path id="Path_105" data-name="Path 105" d="M369.639,143.327a6.936,6.936,0,0,0,.452-6.4,12.83,12.83,0,0,0-7.876,9.486A7.058,7.058,0,0,0,369.639,143.327Z" transform="translate(-361.977 -123.509)" fill="#e7cbba" opacity="0.54"/>
      </g>
      <path id="Path_106" data-name="Path 106" d="M377.987,164.992l.5-10.085,30.06-6.391a17.227,17.227,0,0,0,14.99-12.436c.812-3.041.694-6.226-1.489-8.942-4.251-5.291-11.419-5.679-15.419-5.023-9.523,1.563-36.865,11.449-36.865,11.449-6.134,2.2-9.045,12.71-7.98,19.153l2.278,13.774Z" transform="translate(-361.572 -121.875)" fill="#6585c2"/>
      <path id="Path_107" data-name="Path 107" d="M362.133,158.656s5.758-4.931,16.624-2.046c0,0,1.372,5.586.08,7.48,0,0-11.147,1.078-15.494,3.359Z" transform="translate(-361.551 -120.559)" fill="#7d98ce"/>
    </g>
    <g id="Group_112" data-name="Group 112" transform="translate(390.685 30.441)">
      <path id="Path_108" data-name="Path 108" d="M437.291,143.457s50.854,5.272,41.87-62.992c-7.268-55.215-50.294-49.885-50.294-49.885-52.807,12.107-33.461,52.517-26.66,74.744,0,0,6.632,33.1,35.085,38.133" transform="translate(-386.976 -30.441)" fill="#e7cbba"/>
      <g id="Group_102" data-name="Group 102" transform="translate(0 59.052)">
        <path id="Path_109" data-name="Path 109" d="M404.219,108.262c-21.247,1.19-22.024-26.4-5.513-20.024,3.737,1.577,11.527,7.923,11.267,13.02-.139,1.99-3.706,5.587-5.753,7" transform="translate(-387.205 -87.281)" fill="#e7cbba"/>
        <path id="Path_110" data-name="Path 110" d="M403.137,103.338a13.974,13.974,0,0,1-7.709-5.11c-.589-.853-1.782-3.31-.122-3.825,1.49-.4,4.546,3.292,5.338,4.257a12.063,12.063,0,0,1,2.492,4.678" transform="translate(-386.923 -87.005)" fill="#c09378"/>
      </g>
      <g id="Group_103" data-name="Group 103" transform="translate(26.228 43.354)">
        <path id="Path_111" data-name="Path 111" d="M412.685,76.2c3.625-.168,7.181-.967,10.813-1.026,3.5-.057,7.721,2.788,10.917.925a1.3,1.3,0,0,0,.2-2.2c-2.413-2.171-6.922-1.763-10-1.534-4.094.3-8.007,2.36-11.953,3.316-.274.066-.286.537.027.522Z" transform="translate(-412.451 -72.171)" fill="#3f3e3e"/>
      </g>
      <g id="Group_104" data-name="Group 104" transform="translate(69.999 41.841)">
        <path id="Path_112" data-name="Path 112" d="M472.241,71.567a28.556,28.556,0,0,0-9.782-.754,29.958,29.958,0,0,0-6.247.653c-2.74.807-1.772,4.946,1.035,4.323,1.62-.36,3.1-1.422,4.605-2.1,3.056-1.368,7.112-.621,10.369-1.3a.429.429,0,0,0,.02-.824Z" transform="translate(-454.583 -70.715)" fill="#3f3e3e"/>
      </g>
      <g id="Group_108" data-name="Group 108" transform="translate(48.168 86.948)">
        <g id="Group_106" data-name="Group 106">
          <g id="Group_105" data-name="Group 105" transform="translate(0 0.228)">
            <path id="Path_113" data-name="Path 113" d="M433.569,116.1s3.5,5.038,14.765,4.755,12.831-6.5,12.831-6.5S450.1,120.324,433.569,116.1Z" transform="translate(-433.569 -114.352)" fill="#cfa58c"/>
          </g>
          <path id="Path_114" data-name="Path 114" d="M433.569,116.1s17.11,5.964,27.6-1.743c0,0-7.108-1.272-12.363,2.2C448.8,116.557,443.6,113.227,433.569,116.1Z" transform="translate(-433.569 -114.133)" fill="#c09378"/>
        </g>
        <g id="Group_107" data-name="Group 107" transform="translate(8.692 9.014)">
          <path id="Path_115" data-name="Path 115" d="M442.145,123.455c3.185,1.31,7.775,1.037,11.005-.008.513-.166.146-.759-.392-.615-3.052.818-7.152,1.283-10.163.128-.5-.19-.933.3-.451.5Z" transform="translate(-441.936 -122.809)" fill="#956b52"/>
        </g>
      </g>
      <path id="Path_116" data-name="Path 116" d="M415.453,88.372a88.205,88.205,0,0,1,10.682-3.521c2.152-.561,5.358-.83,8.327,3.128C434.462,87.979,432.166,92.284,415.453,88.372Z" transform="translate(-386.106 -28.336)" fill="#818181"/>
      <g id="Group_109" data-name="Group 109" transform="translate(39.306 56.274)">
        <path id="Path_117" data-name="Path 117" d="M430.374,87.179a2.532,2.532,0,0,1-2.412,2.75,2.8,2.8,0,0,1-2.914-2.553,2.665,2.665,0,0,1,5.326-.2Z" transform="translate(-425.039 -84.608)" fill="#393939"/>
        <path id="Path_118" data-name="Path 118" d="M427.332,86.093a1.118,1.118,0,0,1,1.432.746,1.235,1.235,0,0,1-.791,1.514,1.174,1.174,0,0,1-.641-2.26Z" transform="translate(-424.983 -84.552)" fill="#070203"/>
        <path id="Path_119" data-name="Path 119" d="M428.43,85.733a.689.689,0,0,1,.885.453.758.758,0,0,1-.484.932.721.721,0,1,1-.4-1.385Z" transform="translate(-424.928 -84.565)" fill="#fff"/>
      </g>
      <path id="Path_120" data-name="Path 120" d="M454.49,86.086s2.6-1.952,8.669-3.535c2.152-.562,5.358-.83,8.327,3.128C471.486,85.679,471.2,90,454.49,86.086Z" transform="translate(-384.587 -28.426)" fill="#818181"/>
      <g id="Group_110" data-name="Group 110" transform="translate(77.848 53.884)">
        <path id="Path_121" data-name="Path 121" d="M467.473,84.879a2.533,2.533,0,0,1-2.412,2.75,2.8,2.8,0,0,1-2.914-2.553,2.665,2.665,0,1,1,5.327-.2Z" transform="translate(-462.138 -82.307)" fill="#393939"/>
        <path id="Path_122" data-name="Path 122" d="M464.431,83.792a1.12,1.12,0,0,1,1.432.746,1.234,1.234,0,0,1-.791,1.514,1.174,1.174,0,0,1-.641-2.26Z" transform="translate(-462.082 -82.251)" fill="#070203"/>
        <path id="Path_123" data-name="Path 123" d="M465.529,83.432a.691.691,0,0,1,.885.453.758.758,0,0,1-.484.933.721.721,0,1,1-.4-1.386Z" transform="translate(-462.027 -82.264)" fill="#fff"/>
      </g>
      <circle id="Ellipse_13" data-name="Ellipse 13" cx="1.76" cy="1.76" r="1.76" transform="translate(60.716 46.907)" fill="#9e8071"/>
      <circle id="Ellipse_14" data-name="Ellipse 14" cx="1.76" cy="1.76" r="1.76" transform="translate(75.655 69.729)" fill="#9e8071"/>
      <circle id="Ellipse_15" data-name="Ellipse 15" cx="1.169" cy="1.169" r="1.169" transform="translate(45.454 66.429)" fill="#9e8071"/>
      <path id="Path_124" data-name="Path 124" d="M394.019,55.159s-.01,9.729,7.957,13.462c0,0,.066,17.4-4.551,22.12C397.425,90.742,389.431,70.735,394.019,55.159Z" transform="translate(-386.995 -29.479)" fill="#3f3e3e"/>
      <g id="Group_111" data-name="Group 111" transform="translate(53.677 54.044)">
        <path id="Path_125" data-name="Path 125" d="M447.431,82.636c-2.293,7.467-2.781,9.958,4.023,15.773,2.6,2.225,4.572,3.4,3.71,7.047-1.558,6.6-9.247,4.92-10.634.233l.924-.107c-.693,4.771-6.972,4.659-6.562-.3a.276.276,0,0,1,.547,0c.233,3.654,4.932,4.337,5.075.286.013-.4.67-.62.877-.211,1.416,2.81,3.221,3.292,6.8,1.782,5.037-2.129-.558-6.651-2.491-8.4-6.5-5.893-5.521-9.142-2.562-16.183.071-.167.353-.1.3.078Z" transform="translate(-438.871 -82.461)" fill="#c09378"/>
      </g>
    </g>
  </g>
</svg>
