<svg xmlns="http://www.w3.org/2000/svg" xmlns:xlink="http://www.w3.org/1999/xlink" width="539" height="540" viewBox="0 0 539 540">
  <defs>
    <linearGradient id="linear-gradient" x1="0.756" y1="0.949" x2="0.775" gradientUnits="objectBoundingBox">
      <stop offset="0" stop-color="#b603f8"/>
      <stop offset="0.143" stop-color="#e2dbff"/>
      <stop offset="0.291" stop-color="#b5ccff"/>
      <stop offset="0.463" stop-color="#a0ff89"/>
      <stop offset="0.621" stop-color="#f3ff61"/>
      <stop offset="0.798" stop-color="#ffb134"/>
      <stop offset="1" stop-color="red"/>
    </linearGradient>
    <linearGradient id="linear-gradient-2" x1="0.478" y1="1.022" x2="0.536" gradientUnits="objectBoundingBox">
      <stop offset="0" stop-color="#431274"/>
      <stop offset="0.2" stop-color="#002076"/>
      <stop offset="0.326" stop-color="#005dab"/>
      <stop offset="0.485" stop-color="#30a053"/>
      <stop offset="0.675" stop-color="#ffe900"/>
      <stop offset="0.858" stop-color="#e33c0b"/>
      <stop offset="1" stop-color="#b40019"/>
    </linearGradient>
  </defs>
  <g id="Group_364" data-name="Group 364" transform="translate(-151 -520)">
    <g id="Group_145" data-name="Group 145" transform="translate(353.963 619.581)">
      <path id="Path_89" data-name="Path 89" d="M36.67-35.272l2.7,26.919A11.827,11.827,0,0,0,47.9.179l26.919,2.7L47.9,5.576a11.824,11.824,0,0,0-8.53,8.532l-2.7,26.919-2.7-26.919a11.824,11.824,0,0,0-8.53-8.532l-26.919-2.7L25.441.179a11.827,11.827,0,0,0,8.53-8.532Z" transform="translate(1.478 35.272)" fill="#fff"/>
      <circle id="Ellipse_12" data-name="Ellipse 12" cx="24.617" cy="24.617" r="24.617" transform="translate(14.871 12.835)" fill="#fff" opacity="0.3"/>
    </g>
    <g id="Group_145-2" data-name="Group 145" transform="translate(431.963 865.581)">
      <path id="Path_89-2" data-name="Path 89" d="M36.67-35.272l2.7,26.919A11.827,11.827,0,0,0,47.9.179l26.919,2.7L47.9,5.576a11.824,11.824,0,0,0-8.53,8.532l-2.7,26.919-2.7-26.919a11.824,11.824,0,0,0-8.53-8.532l-26.919-2.7L25.441.179a11.827,11.827,0,0,0,8.53-8.532Z" transform="translate(1.478 35.272)" fill="#fff"/>
      <circle id="Ellipse_12-2" data-name="Ellipse 12" cx="24.617" cy="24.617" r="24.617" transform="translate(14.871 12.835)" fill="#fff" opacity="0.3"/>
    </g>
    <g id="Group_145-3" data-name="Group 145" transform="translate(469.963 706.581)">
      <path id="Path_89-3" data-name="Path 89" d="M36.67-35.272l2.7,26.919A11.827,11.827,0,0,0,47.9.179l26.919,2.7L47.9,5.576a11.824,11.824,0,0,0-8.53,8.532l-2.7,26.919-2.7-26.919a11.824,11.824,0,0,0-8.53-8.532l-26.919-2.7L25.441.179a11.827,11.827,0,0,0,8.53-8.532Z" transform="translate(1.478 35.272)" fill="#fff"/>
      <circle id="Ellipse_12-3" data-name="Ellipse 12" cx="24.617" cy="24.617" r="24.617" transform="translate(14.871 12.835)" fill="#fff" opacity="0.3"/>
    </g>
    <g id="Group_145-4" data-name="Group 145" transform="translate(281.5 670.581)">
      <path id="Path_89-4" data-name="Path 89" d="M27.4-35.272l2.044,20.378A8.953,8.953,0,0,0,35.9-8.435L56.281-6.391,35.9-4.349A8.951,8.951,0,0,0,29.445,2.11L27.4,22.489,25.358,2.11A8.951,8.951,0,0,0,18.9-4.349L-1.478-6.391,18.9-8.435a8.953,8.953,0,0,0,6.457-6.459Z" transform="translate(1.478 35.272)" fill="#fff"/>
      <circle id="Ellipse_12-4" data-name="Ellipse 12" cx="18.636" cy="18.636" r="18.636" transform="translate(11.258 9.717)" fill="#fff" opacity="0.3"/>
    </g>
    <g id="Group_231" data-name="Group 231" transform="translate(420.5 822.581)">
      <path id="Path_89-5" data-name="Path 89" d="M19.9-35.272l1.513,15.086A6.628,6.628,0,0,0,26.2-15.4l15.086,1.513L26.2-12.379A6.626,6.626,0,0,0,21.415-7.6L19.9,7.489,18.389-7.6a6.626,6.626,0,0,0-4.781-4.782L-1.478-13.891,13.608-15.4a6.628,6.628,0,0,0,4.781-4.782Z" transform="translate(1.478 35.272)" fill="#fff"/>
      <circle id="Ellipse_12-5" data-name="Ellipse 12" cx="13.797" cy="13.797" r="13.797" transform="translate(8.334 7.193)" fill="#fff" opacity="0.3"/>
    </g>
    <g id="Group_363" data-name="Group 363">
      <g id="Group_25" data-name="Group 25" transform="translate(211.695 646.568) rotate(-7)">
        <g id="Group_3" data-name="Group 3" transform="translate(215.789 161.169)">
          <path id="Path_1" data-name="Path 1" d="M203.49,182.2l4,8.325c2,4.16,12.815-1.381,11.615,2.232l34.447-13.011a12.407,12.407,0,0,0,4.214-.308c8.007-1.762,15.965-3.616,17.631-4.137.718-3.016-10.648-2.369-10.543-2.057-.281-.328,17.13-4.786,16.349-6.389-1.219-2.3-17.2,1.019-17.014,1.35-.368-.281,13.258-7.536,12.049-9.825-3.19-1.577-15.887,5.683-15.641,5.912-.313-.16,9.146-9.723,7.094-11.465-3.732-.725-13.491,10.36-13.131,10.528.005,0-1.741-3.47-2.861-5.649-.77-1.5-2.994-1.478-2.994-1.478s.876,5.21-.8,8.277a9.889,9.889,0,0,0-1.076,6.347l-27.545,5.793" transform="translate(-203.49 -152.795)" fill="#cfa58c"/>
          <path id="Path_2" data-name="Path 2" d="M220.279,192.257l1.507-9.731c.881-2.856,3.659-6.05,6.758-9.443l-10.281,2.162" transform="translate(-202.469 -151.393)" fill="#cfa58c"/>
          <line id="Line_1" data-name="Line 1" x2="3.996" y2="8.325" transform="translate(0 29.408)" fill="#cfa58c"/>
          <g id="Group_2" data-name="Group 2" transform="translate(51.854 12.955)">
            <path id="Path_3" data-name="Path 3" d="M253.319,164.913s1.552,3.64-1.328,6.147l6.441,1.2Z" transform="translate(-251.991 -164.913)" fill="#cfa58c"/>
          </g>
        </g>
        <g id="Group_4" data-name="Group 4" transform="translate(192.765 136.048)">
          <path id="Path_4" data-name="Path 4" d="M237.4,173.127l-11.276,1.75L212.176,143.07a19.468,19.468,0,0,0-17.195-13.744c-3.549-.2-7.049.655-9.555,3.693-4.883,5.915-3.672,13.937-2.03,18.215,3.908,10.182,21.106,38.179,21.106,38.179,3.834,6.286,16.136,7.1,23.024,4.449l14.722-5.672Z" transform="translate(-181.955 -129.298)" fill="#6585c2"/>
          <path id="Path_5" data-name="Path 5" d="M232.406,189.045s-6.775-5.244-6.067-17.929c0,0,5.867-2.8,8.259-1.8,0,0,3.745,12.091,7.264,16.38Z" transform="translate(-178.89 -126.547)" fill="#7d98ce"/>
        </g>
        <g id="Group_11" data-name="Group 11" transform="translate(25.569 114.244)">
          <g id="Group_9" data-name="Group 9" transform="translate(0 64.179)">
            <path id="Path_6" data-name="Path 6" d="M114.42,168.933a32.011,32.011,0,0,0-12.5,19.827L84.836,229.968c-16.733,2.383-44.928,26.143-44.928,26.143l4.244,9.3s43.569-9.868,56.116-17.586c9.912-6.1,32.79-32.382,32.79-32.382l9.229-39.57S119.695,173.965,114.42,168.933Z" transform="translate(-24.577 -168.933)" fill="#262727"/>
            <path id="Path_7" data-name="Path 7" d="M110.81,168.933a32.011,32.011,0,0,0-12.5,19.827l-6.172,15.821c3.1,8.013,9.544,18.106,22.154,27.362,8.026-8.3,15.161-16.5,15.161-16.5l9.229-39.57S116.085,173.965,110.81,168.933Z" transform="translate(-20.967 -168.933)" fill="#1c1d1d"/>
            <g id="Group_8" data-name="Group 8" transform="translate(0 81.022)">
              <g id="Group_7" data-name="Group 7">
                <g id="Group_6" data-name="Group 6">
                  <g id="Group_5" data-name="Group 5">
                    <path id="Path_8" data-name="Path 8" d="M44.209,245.723a2.2,2.2,0,0,1,2.143,1.916c.1,3.359.356,5.357,2.466,7.666,1.976,2.16,3.308,3.462,1.482,4.346s-7.926,5.624-8.745,8.542c-1.984,7.064-4.828,21.516-11.052,21.372-5.826-.136-4.382-8.933-3.476-21.573s-3.854-16.438.205-21.81C29.332,243.4,39.734,245.363,44.209,245.723Z" transform="translate(-25.569 -244.716)" fill="#070203"/>
                  </g>
                </g>
              </g>
              <path id="Path_9" data-name="Path 9" d="M40.379,250.8a3.7,3.7,0,1,1-3.306-4.055A3.7,3.7,0,0,1,40.379,250.8Z" transform="translate(-25.055 -244.577)" fill="#070203"/>
              <path id="Path_10" data-name="Path 10" d="M27.194,287.6a3.554,3.554,0,0,0,3.309,1.966c3.685.086,6.185-4.947,8.023-10.532a20.633,20.633,0,0,0-2.2-1.675,21.167,21.167,0,0,0-7.606-3.089c.961-10.331,1.337-19.69.706-22.32-.548-2.283.725-4.872,2.526-7.216-2.19.078-3.972.466-4.715,1.449-4.059,5.372.7,9.177-.205,21.81-.151,2.1-.315,4.095-.46,5.962h0c-.011.137-.02.272-.031.407l-.012.153q-.055.717-.1,1.407l0,.049c-.1,1.437-.179,2.784-.215,4.028v.013a31.176,31.176,0,0,0,.128,4.428v0a8.9,8.9,0,0,0,.861,3.152v0Z" transform="translate(-25.569 -244.715)" fill="#070203"/>
            </g>
          </g>
          <g id="Group_10" data-name="Group 10" transform="translate(75.286 67.412)">
            <path id="Path_11" data-name="Path 11" d="M139.621,178.044c-3.048.353-21.888-12.81-38.759-1.469-1.279.86-2.329,2.736-3.186,5.066a29.064,29.064,0,0,0,5.38,28.608l39.175,47.066s4.4,14.5,16.375,30.351c3.965,5.248,15.8,19.583,15.8,19.583l8.458-3.846L165.8,241.6Z" transform="translate(-95.987 -171.957)" fill="#262727"/>
            <path id="Path_12" data-name="Path 12" d="M143.325,187.236l-3.787-9.192c-3.048.353-21.888-12.81-38.759-1.469-1.279.86-2.329,2.736-3.186,5.066-.151.409-.277.824-.406,1.238A60.338,60.338,0,0,0,143.325,187.236Z" transform="translate(-95.904 -171.957)" fill="#262727"/>
          </g>
          <path id="Path_13" data-name="Path 13" d="M154.592,280.668c3.965,5.248,15.8,19.583,15.8,19.583l8.458-3.846L172.44,273.18c-5.888,4.673-12.869,6.3-18.4,6.743C154.227,280.172,154.4,280.419,154.592,280.668Z" transform="translate(-16.688 -97.548)" fill="#262727"/>
          <path id="Path_14" data-name="Path 14" d="M211.847,292.668a5.99,5.99,0,0,0,1.289-1.533l.018-.036a3.55,3.55,0,0,0,.181-.384c.01-.025.018-.048.027-.072a3.1,3.1,0,0,0,.109-.356l.022-.1a2.954,2.954,0,0,0,.048-.336c0-.04.007-.08.01-.12a2.96,2.96,0,0,0,0-.323c0-.046,0-.092-.01-.138-.012-.106-.032-.213-.055-.321-.011-.048-.018-.1-.031-.146-.029-.111-.068-.226-.11-.339-.016-.045-.028-.09-.046-.135a4.7,4.7,0,0,0-.23-.484,3.614,3.614,0,0,0-.343-.511c-.041-.051-.089-.1-.133-.148a3.844,3.844,0,0,0-.291-.3c-.058-.051-.119-.1-.18-.15-.1-.082-.21-.162-.322-.237-.068-.045-.137-.089-.207-.132-.121-.072-.248-.138-.38-.2-.07-.034-.138-.071-.211-.1-.162-.072-.331-.135-.506-.195-.049-.017-.1-.037-.145-.053-.228-.073-.465-.136-.712-.192-.063-.014-.13-.025-.2-.037-.187-.038-.377-.075-.574-.1-.094-.014-.191-.025-.289-.037-.176-.022-.355-.043-.538-.059-.1-.01-.21-.017-.315-.025-.187-.013-.376-.021-.569-.029-.1,0-.208-.007-.314-.01-.216,0-.436,0-.659,0-.086,0-.169,0-.256,0-.313.008-.632.019-.956.039l-.038,0c-.31.018-.625.043-.945.071-.1.009-.194.019-.291.029-.241.024-.482.048-.727.076l-.331.04q-.358.045-.718.094l-.328.046q-.393.058-.791.121l-.247.04c-4.472.731-9.176,2-12.471,2.737-3.076.685-10.388-2.21-12.091-3.33s-2.246.614-3.266,3.291c-1.09,2.861-2.8,4.016-5.833,5.681a2.055,2.055,0,0,0-.714,2.7c1.194,2.543,2.984,7.476,5.063,10.772h-.007c.089.141.179.272.267.405.055.081.108.167.163.246.169.245.341.473.513.691.063.079.126.153.188.228.135.16.269.31.406.451.056.058.111.12.168.174a5.5,5.5,0,0,0,.558.48c.044.032.087.057.13.087a3.585,3.585,0,0,0,.467.274c.056.027.111.053.167.076a2.424,2.424,0,0,0,.594.17c6.9.883,8.078-4.908,20.108-10.092q1.414-.609,2.758-1.176c2.487-1.054,4.79-2.017,6.826-2.934l.018-.009q.953-.428,1.823-.845l0,0,.005,0q1.155-.553,2.15-1.093l.031-.016c.658-.359,1.259-.716,1.8-1.072l.014-.009,0,0,.012-.009a12.9,12.9,0,0,0,1.429-1.081Z" transform="translate(-15.865 -96.735)" fill="#070203"/>
          <path id="Path_15" data-name="Path 15" d="M107.242,173.212c-.229.214-.458.431-.677.631-.281.258-.546.494-.81.727-.186.165-.381.341-.557.494-.4.343-.772.661-1.117.945-.143.119-.265.215-.4.323-.216.174-.432.35-.62.5-.137.107-.259.2-.38.293-.142.11-.282.217-.4.307-.1.072-.194.145-.274.2-.132.1-.256.187-.341.248l-.067.048-.158.11.037.133c.009.029.012.038.024.08.067.225.2.637.419,1.223l.081.213c.206.538.471,1.185.824,1.953.284.617.623,1.308,1.018,2.056.227.429.468.873.734,1.342.349.612.746,1.265,1.169,1.936a65.16,65.16,0,0,0,8.919,11.091c1.072,1.083,2.163,2.375,3.406,3.489q2.082,1.865,4.5,3.768l.029.021c.285.222.594.446.886.669h0c.644.491,1.295.981,1.975,1.473.3.215.608.429.913.644.42.3.835.6,1.272.9.322.219.663.439.993.659.38.253.764.5,1.155.758.78.5,1.586,1.008,2.408,1.511.372.227.734.454,1.114.68,1.206.717,2.444,1.433,3.739,2.14l.007,0c1.29.706,2.639,1.4,4.021,2.094.427.213.87.423,1.305.635q1.495.728,3.058,1.443.773.353,1.562.7c1.066.471,2.162.937,3.278,1.4.5.2.979.411,1.485.614,1.623.65,3.283,1.293,5.011,1.919l.118-.134.1-.111c1.188-1.347,4.037-3.68,10.747-10.741q.861-.9,1.734-1.814c.118-.122.234-.244.352-.365q.842-.874,1.687-1.738l.414-.423q.818-.834,1.63-1.65c.148-.149.3-.3.444-.445q.815-.816,1.617-1.6c.181-.179.362-.355.542-.53q.763-.744,1.506-1.451l.513-.486c.9-.849,1.772-1.651,2.605-2.393l.149-.133c.35-.309.69-.605,1.024-.891l.221-.191c.384-.326.758-.637,1.117-.928.588-.474,1.32-1.051,2.167-1.724l.109-.088c.4-.315.81-.647,1.252-1l.1-.078c.45-.365.919-.746,1.411-1.151l.15-.125c.48-.4.973-.807,1.485-1.242.065-.056.136-.118.2-.173.5-.428,1.014-.867,1.541-1.329.083-.073.17-.152.253-.226.514-.452,1.035-.915,1.567-1.4.124-.113.252-.235.377-.35.5-.454.992-.913,1.5-1.393.02-.02.041-.037.062-.058v0c15.135-14.388,34.182-40.23,9.024-68.717-7.042-7.976-23.473-11.932-36.982-8.141-18.578,5.214-35.719,16.116-45.637,41.389a68.9,68.9,0,0,1-5.051,10.239c-.206.344-.419.668-.628,1-.371.6-.742,1.187-1.118,1.756-.281.424-.566.832-.849,1.242-.314.452-.628.9-.944,1.335-.28.386-.56.768-.841,1.139-.335.443-.668.871-1,1.294-.264.334-.529.674-.792,1-.382.467-.76.909-1.139,1.349" transform="translate(-20.324 -108.903)" fill="#5e7cac"/>
        </g>
        <path id="Path_16" data-name="Path 16" d="M111.947,173.9" transform="translate(5.971 9.833)" fill="#5e7cac"/>
        <path id="Path_17" data-name="Path 17" d="M204.211,131.173c-4.825-.966-12.2-1.533-17.42.72-3.529,1.523-4.383.257-2.017,3.834,2.671,3.814,13.624,18.129,18.651,18.622-.29-4.655-.6-15.85.772-20.431" transform="translate(10.913 6.821)" fill="#7d98ce"/>
        <path id="Path_18" data-name="Path 18" d="M175.543,114.33c-4.243,2.492-13.019,10.669-15.411,15.823-1.619,3.487-3.1,3.11,1.048,4.2,4.532,1.067,22.237,4.453,26.315,1.474-3.315-3.28-11-11.424-13.029-15.757" transform="translate(9.188 5.715)" fill="#7d98ce"/>
        <g id="Group_13" data-name="Group 13" transform="translate(122.344 111.838)">
          <g id="Group_12" data-name="Group 12" transform="translate(0.79 1.275)">
            <path id="Path_19" data-name="Path 19" d="M151.025,175.572l1.552-2.431a1.908,1.908,0,0,0-.923-2.769l-3.621-1.56a3.169,3.169,0,0,0-2.69.079l-3.66,1.877-7.66-25.074,27.6-12.3a17.2,17.2,0,0,0,10.6-16.314c-.128-3.14-1.188-6.143-4.077-8.085-5.626-3.781-14.588,2.981-14.588,2.981l-31.4,22.662a13.244,13.244,0,0,0-3.876,16.659l13.115,26.078a37.71,37.71,0,0,1,2.153,5.226l.983,3.012a6.611,6.611,0,0,0,3.693,3.989l1.107.477a4.793,4.793,0,0,0,4.705-.493l2.382-1.737a5.671,5.671,0,0,1,3.93-1.037l3.317.346a2.279,2.279,0,0,0,2.336-1.3l.558-1.249a2.892,2.892,0,0,0-.464-3.061Z" transform="translate(-116.826 -107.845)" fill="#e7cbba"/>
            <path id="Path_20" data-name="Path 20" d="M123.26,139.646a7.139,7.139,0,0,0-1.515-6.425,13.2,13.2,0,0,0-4.834,11.73A7.261,7.261,0,0,0,123.26,139.646Z" transform="translate(-116.826 -106.091)" fill="#e7cbba" opacity="0.54"/>
          </g>
          <path id="Path_21" data-name="Path 21" d="M137.942,159.644l-2.593-10.062L162.925,134.1a17.727,17.727,0,0,0,10.92-16.808c-.133-3.236-1.224-6.329-4.2-8.33-5.8-3.9-12.958-2.084-16.687-.214-8.878,4.451-32.713,22.536-32.713,22.536-5.355,4.035-4.995,15.256-1.976,21.261l6.455,12.835Z" transform="translate(-116.087 -106.653)" fill="#6585c2"/>
          <path id="Path_22" data-name="Path 22" d="M120.542,156.6s4.147-6.608,15.705-7.1c0,0,3.06,5.068,2.37,7.325,0,0-10.623,4.473-14.195,8.044Z" transform="translate(-115.779 -103.691)" fill="#7d98ce"/>
        </g>
        <g id="Group_24" data-name="Group 24" transform="translate(157.741 31.646)">
          <path id="Path_23" data-name="Path 23" d="M196.189,148.127s51.68,9.867,48.456-60.914c-2.61-57.252-47.193-55.561-47.193-55.561-55.207,7.783-38.915,50.913-33.892,74.3,0,0,3.9,34.524,32.63,42.176" transform="translate(-148.628 -31.646)" fill="#e7cbba"/>
          <g id="Group_14" data-name="Group 14" transform="translate(0 57.31)">
            <path id="Path_24" data-name="Path 24" d="M165.5,107.682c-21.889-.645-20.266-29-3.9-21.016C165.3,88.611,172.731,95.8,172.017,101c-.316,2.027-4.289,5.4-6.513,6.678" transform="translate(-149.195 -85.251)" fill="#e7cbba"/>
            <path id="Path_25" data-name="Path 25" d="M164.6,102.345a14.376,14.376,0,0,1-7.456-5.915c-.528-.926-1.536-3.549.212-3.932,1.562-.279,4.372,3.774,5.1,4.834a12.4,12.4,0,0,1,2.145,5.014" transform="translate(-148.7 -84.751)" fill="#c09378"/>
          </g>
          <g id="Group_15" data-name="Group 15" transform="translate(28.64 44.199)">
            <path id="Path_26" data-name="Path 26" d="M176.2,75.878c3.732.144,7.448-.361,11.177-.1,3.592.249,7.673,3.537,11.112,1.906a1.339,1.339,0,0,0,.4-2.24c-2.284-2.439-6.943-2.415-10.12-2.451-4.224-.046-8.416,1.718-12.546,2.352-.287.044-.34.526-.018.538Z" transform="translate(-175.983 -72.987)" fill="#3f3e3e"/>
          </g>
          <g id="Group_16" data-name="Group 16" transform="translate(73.724 45.91)">
            <path id="Path_27" data-name="Path 27" d="M236.446,76.33a29.364,29.364,0,0,0-9.964-1.631,30.82,30.82,0,0,0-6.463.122c-2.879.588-2.251,4.916.682,4.522,1.692-.227,3.3-1.186,4.906-1.744,3.253-1.135,7.347-.014,10.747-.427a.441.441,0,0,0,.092-.842Z" transform="translate(-218.153 -74.588)" fill="#3f3e3e"/>
          </g>
          <g id="Group_20" data-name="Group 20" transform="translate(47.472 90.976)">
            <g id="Group_18" data-name="Group 18">
              <g id="Group_17" data-name="Group 17" transform="translate(0 0.609)">
                <path id="Path_28" data-name="Path 28" d="M193.6,117.31s3.144,5.472,14.722,6.171,13.725-5.538,13.725-5.538S210.174,123.1,193.6,117.31Z" transform="translate(-193.598 -117.31)" fill="#cfa58c"/>
              </g>
              <path id="Path_29" data-name="Path 29" d="M193.6,117.349s17.02,7.616,28.447.633c0,0-7.177-1.928-12.869,1.167C209.176,119.15,204.133,115.28,193.6,117.349Z" transform="translate(-193.598 -116.74)" fill="#c09378"/>
            </g>
            <g id="Group_19" data-name="Group 19" transform="translate(8.258 8.738)">
              <path id="Path_30" data-name="Path 30" d="M201.517,125.449c3.151,1.624,7.882,1.746,11.285.957.54-.125.217-.765-.347-.665-3.2.571-7.445.689-10.431-.76-.491-.238-.983.222-.506.468Z" transform="translate(-201.322 -124.914)" fill="#956b52"/>
            </g>
          </g>
          <path id="Path_31" data-name="Path 31" d="M177.917,88.248a90.7,90.7,0,0,1,11.262-2.673c2.256-.387,5.567-.382,8.263,3.938C197.442,89.513,194.711,93.726,177.917,88.248Z" transform="translate(-147.21 -27.929)" fill="#818181"/>
          <g id="Group_21" data-name="Group 21" transform="translate(41.014 57.569)">
            <path id="Path_32" data-name="Path 32" d="M193.036,88.365a2.606,2.606,0,0,1-2.713,2.609,2.877,2.877,0,0,1-2.765-2.873,2.742,2.742,0,1,1,5.478.264Z" transform="translate(-187.558 -85.493)" fill="#393939"/>
            <path id="Path_33" data-name="Path 33" d="M189.968,86.947a1.151,1.151,0,0,1,1.4.891,1.269,1.269,0,0,1-.943,1.483,1.209,1.209,0,0,1-.459-2.373Z" transform="translate(-187.459 -85.395)" fill="#070203"/>
            <path id="Path_34" data-name="Path 34" d="M191.079,86.683a.711.711,0,0,1,.868.542.781.781,0,0,1-.578.914.742.742,0,1,1-.29-1.456Z" transform="translate(-187.356 -85.412)" fill="#fff"/>
          </g>
          <path id="Path_35" data-name="Path 35" d="M217.007,89.31s2.836-1.774,9.2-2.865c2.255-.387,5.566-.382,8.262,3.938C234.469,90.383,233.8,94.789,217.007,89.31Z" transform="translate(-144.508 -27.869)" fill="#818181"/>
          <g id="Group_22" data-name="Group 22" transform="translate(80.743 58.499)">
            <path id="Path_36" data-name="Path 36" d="M230.2,89.235a2.606,2.606,0,0,1-2.713,2.609,2.877,2.877,0,0,1-2.765-2.873,2.742,2.742,0,1,1,5.478.264Z" transform="translate(-224.718 -86.363)" fill="#393939"/>
            <path id="Path_37" data-name="Path 37" d="M227.128,87.817a1.151,1.151,0,0,1,1.4.891,1.269,1.269,0,0,1-.943,1.483,1.209,1.209,0,0,1-.459-2.373Z" transform="translate(-224.619 -86.265)" fill="#070203"/>
            <path id="Path_38" data-name="Path 38" d="M228.239,87.553a.711.711,0,0,1,.868.542.781.781,0,0,1-.577.914.742.742,0,1,1-.291-1.456Z" transform="translate(-224.516 -86.282)" fill="#fff"/>
          </g>
          <circle id="Ellipse_1" data-name="Ellipse 1" cx="1.812" cy="1.812" r="1.812" transform="translate(63.862 49.757)" fill="#9e8071"/>
          <circle id="Ellipse_2" data-name="Ellipse 2" cx="1.812" cy="1.812" r="1.812" transform="translate(77.178 74.468)" fill="#9e8071"/>
          <circle id="Ellipse_3" data-name="Ellipse 3" cx="1.203" cy="1.203" r="1.203" transform="translate(46.556 68.385)" fill="#9e8071"/>
          <path id="Path_39" data-name="Path 39" d="M159.5,53.285s-.864,9.975,6.978,14.5c0,0-1.457,17.843-6.607,22.281C159.866,90.067,153.425,68.854,159.5,53.285Z" transform="translate(-148.663 -30.15)" fill="#3f3e3e"/>
          <g id="Group_23" data-name="Group 23" transform="translate(54.119 57.046)">
            <path id="Path_40" data-name="Path 40" d="M210.636,85.2c-3.005,7.454-3.724,9.966,2.741,16.525,2.473,2.509,4.39,3.883,3.186,7.55-2.176,6.629-9.913,4.234-10.923-.694l.956-.029c-1.129,4.83-7.558,4.165-6.7-.88a.284.284,0,0,1,.561.052c-.081,3.767,4.676,4.879,5.179.738.049-.409.742-.577.917-.139,1.2,3.005,3.013,3.657,6.811,2.422,5.351-1.739.012-6.867-1.818-8.834-6.149-6.611-4.858-9.857-1.207-16.818.088-.166.371-.073.3.107Z" transform="translate(-199.815 -85.004)" fill="#c09378"/>
          </g>
        </g>
      </g>
      <ellipse id="Ellipse_42" data-name="Ellipse 42" cx="179.5" cy="180" rx="179.5" ry="180" transform="translate(241 610)" opacity="0.396" fill="url(#linear-gradient)"/>
      <path id="Path_338" data-name="Path 338" d="M210.5-198c-1.219-2.3-17.2,1.019-17.015,1.35-.368-.28,13.259-7.537,12.05-9.826-3.19-1.577-15.888,5.684-15.642,5.913-.313-.16,9.147-9.723,7.094-11.466-3.733-.725-13.492,10.36-13.132,10.528.005,0-1.741-3.471-2.861-5.65-.77-1.5-2.994-1.478-2.994-1.478s.876,5.21-.8,8.278A9.884,9.884,0,0,0,176.127-194l-9.84,2.069c-.514-1.5-.819-2.481-.819-2.481-2.392-1-8.259,1.8-8.259,1.8-.01.174,0,.331-.011.5l-3.265.507-13.952-31.808a20.818,20.818,0,0,0-.965-2.432c14.785-3.516,33.73-16.468,31.739-60.179-2.61-57.255-47.2-55.564-47.2-55.564-23.47,3.309-34.014,13.006-38,24.857a15.077,15.077,0,0,1,.006-1.727c-4.979,12.771-1.542,29.333-.144,34.877-14.645-5.194-15.454,20.806,5.277,21.709.138.571.3,1.183.468,1.819-5.431-2.563-11.593-.936-14.96.752-8.879,4.451-32.715,22.537-32.715,22.537-5.356,4.035-5,15.257-1.976,21.262L42.776-213a70.119,70.119,0,0,1-3.711,7.089c-.206.344-.419.668-.628,1-.371.6-.742,1.187-1.118,1.756-.281.424-.566.832-.849,1.242-.314.452-.628.9-.944,1.335-.28.386-.56.768-.841,1.14-.335.443-.668.87-1,1.293-.264.334-.529.675-.792,1-.382.467-.76.91-1.139,1.349l-2.276,1.116c-.229.215-.458.431-.677.632-.281.257-.546.493-.81.727-.186.164-.381.34-.557.493-.4.344-.772.662-1.117.946-.143.118-.265.215-.4.322-.216.174-.432.35-.62.5-.137.107-.259.2-.38.293-.142.11-.282.217-.4.307-.1.072-.194.145-.274.2-.132.1-.256.187-.341.247l-.067.049c-.093.065-.158.109-.158.109l.037.133.024.08c.067.226.2.637.419,1.223l.081.213c.028.073.066.164.1.241-.539.312-1.077.646-1.613,1.006-1.279.86-2.329,2.736-3.186,5.066a27.612,27.612,0,0,0-1.6,11.639L2.814-133.768c-12.329,1.757-30.867,15.108-39.779,22.02a2.481,2.481,0,0,0-1.841-1.024c-2.9-.234-8.264-1.129-12.267-.985l0-.006c-.169.006-.33.018-.5.028-.1.006-.205.009-.3.017-.3.022-.593.057-.875.1-.1.014-.2.031-.3.048-.211.035-.412.076-.605.121-.079.019-.161.035-.237.057a5.664,5.664,0,0,0-.7.235c-.05.021-.093.046-.141.068a3.555,3.555,0,0,0-.469.259c-.051.034-.1.067-.149.1a2.222,2.222,0,0,0-.436.417,7.575,7.575,0,0,0-1.617,3.9,8.762,8.762,0,0,0-.047,1c.024,3.38,1.725,7.417,1.565,14.649-.016.723-.05,1.478-.107,2.268v.015c-.069.962-.141,1.9-.213,2.811-.08,1.018-.157,2-.232,2.955l-.014.182h0c-.01.132-.019.26-.029.389-.02.262-.038.52-.058.776s-.041.54-.059.8l0,.049c0,.061-.007.115-.012.175-.034.5-.063.978-.091,1.452-.012.2-.025.405-.035.6-.026.481-.044.943-.06,1.4,0,.132-.014.274-.017.4v.013c0,.039,0,.075,0,.113-.005.2-.007.386-.011.577,0,.308-.006.609-.005.9,0,.194,0,.387.006.575.006.347.02.683.038,1.009.011.185.024.366.037.543.019.24.037.481.064.708v0c.006.056.016.1.024.159.019.157.044.308.067.458.036.23.079.449.126.662.029.133.056.268.088.395a7.735,7.735,0,0,0,.269.848c.038.1.087.189.129.284.051.117.1.238.157.346v0h0c.036.067.078.127.117.191s.074.126.113.185a3.782,3.782,0,0,0,.452.553c.045.045.09.09.137.132a3.236,3.236,0,0,0,.577.419c.045.026.092.048.138.072a3.6,3.6,0,0,0,.735.278c.034.009.071.013.1.02a4.693,4.693,0,0,0,.936.117,3.847,3.847,0,0,0,.631-.04c.066-.01.132-.027.2-.04a4.186,4.186,0,0,0,.412-.1c.075-.024.149-.051.222-.078.125-.046.248-.1.37-.156.073-.034.145-.071.217-.109.124-.067.245-.142.365-.221.064-.042.129-.082.194-.127.141-.1.28-.215.418-.333.037-.032.077-.061.114-.094.174-.156.344-.325.512-.506.043-.045.083-.1.125-.143.124-.14.248-.283.368-.435.057-.072.112-.146.169-.221.1-.138.207-.279.309-.427.057-.082.113-.166.17-.251q.149-.226.3-.465c.052-.087.1-.171.156-.259.106-.181.21-.367.312-.555.038-.072.078-.141.117-.214q.212-.4.416-.822l.015-.033q.194-.406.38-.828c.038-.088.076-.176.113-.264.091-.212.181-.424.269-.641.042-.1.082-.2.123-.306.083-.211.166-.422.247-.637.04-.1.079-.207.118-.312q.128-.345.251-.7c.031-.086.062-.171.092-.257,1.432-4.113,2.477-8.681,3.355-11.8.819-2.919,6.917-7.655,8.746-8.542.534-.259.791-.555.849-.895,12.392-3.005,40.45-10.224,50.114-16.167,4.377-2.693,11.282-9.322,17.63-15.886h0l.082-.087q.677-.7,1.342-1.4l.262-.275q.585-.614,1.16-1.22l.3-.321.545-.577,24.517,29.455s4.4,14.5,16.376,30.354c.405.537.9,1.173,1.448,1.875q.366.468.768.976t.837,1.056c2.873,3.613,6.593,8.174,9.273,11.445a2.292,2.292,0,0,0,.086,1.756c1.194,2.544,2.984,7.477,5.064,10.773h-.007c.089.14.179.27.267.405.055.08.108.166.163.245.169.245.341.473.513.691.063.079.126.153.188.228.135.16.269.31.406.451.056.058.111.12.168.174a5.5,5.5,0,0,0,.558.48c.044.032.087.057.13.087a3.585,3.585,0,0,0,.467.274c.056.027.111.053.167.076a2.426,2.426,0,0,0,.594.17c6.9.883,8.079-4.909,20.11-10.093q1.413-.609,2.757-1.176c2.487-1.054,4.79-2.018,6.827-2.934l.018-.009q.953-.428,1.823-.845h0l.005,0q1.155-.553,2.15-1.092l.031-.017c.658-.359,1.259-.715,1.8-1.072l.014-.009,0,0,.012-.009a12.9,12.9,0,0,0,1.43-1.081l.009-.006a5.992,5.992,0,0,0,1.289-1.533l.018-.035a3.475,3.475,0,0,0,.181-.385c.01-.024.018-.048.027-.072a3.147,3.147,0,0,0,.109-.355l.022-.1a2.932,2.932,0,0,0,.048-.335c0-.041.007-.08.01-.121a2.964,2.964,0,0,0,0-.323c0-.046,0-.092-.01-.138-.012-.106-.032-.213-.055-.32-.011-.049-.018-.1-.031-.146-.029-.112-.068-.227-.11-.34-.016-.045-.028-.089-.046-.135a4.694,4.694,0,0,0-.23-.483,3.565,3.565,0,0,0-.343-.512c-.041-.051-.089-.1-.133-.148a3.837,3.837,0,0,0-.291-.3c-.058-.052-.119-.1-.179-.151-.1-.082-.211-.163-.323-.237-.068-.045-.137-.089-.207-.132-.121-.072-.248-.138-.38-.2-.07-.034-.138-.069-.211-.1-.163-.071-.331-.135-.506-.195-.049-.017-.1-.036-.145-.052-.228-.074-.465-.137-.712-.192-.063-.015-.13-.026-.2-.038-.187-.038-.377-.075-.574-.1-.094-.015-.191-.026-.289-.038-.176-.022-.355-.043-.538-.059l-.315-.025c-.187-.012-.376-.021-.569-.028-.1,0-.208-.009-.314-.011-.216,0-.436,0-.659,0h-.256c-.313.007-.632.019-.956.038l-.038,0q-.465.027-.945.071l-.291.028c-.241.024-.482.048-.727.076l-.331.041q-.358.043-.719.093l-.328.047c-.262.037-.526.078-.79.12l-.248.04c-4.472.732-9.177,2-12.472,2.737-3.076.685-10.387-2.209-12.091-3.329a1.776,1.776,0,0,0-.9-.34L87.663-121.924l-9.326-22.64c.231.086.454.172.687.257l.118-.134.1-.111c1.188-1.347,4.037-3.68,10.747-10.741q.861-.906,1.734-1.815c.118-.121.234-.244.352-.365q.842-.874,1.687-1.738l.414-.422q.818-.836,1.631-1.65l.444-.446c.543-.544,1.081-1.076,1.617-1.6l.542-.53q.763-.743,1.506-1.451l.513-.485c.9-.85,1.772-1.651,2.606-2.394l.149-.132c.35-.31.69-.605,1.024-.892.073-.063.149-.129.221-.19.384-.327.758-.638,1.117-.929.588-.473,1.32-1.051,2.167-1.725l.109-.088c.4-.314.81-.647,1.252-1l.1-.078c.45-.364.919-.745,1.411-1.152l.15-.125c.48-.4.973-.807,1.485-1.241l.2-.174c.5-.428,1.014-.866,1.541-1.328.083-.073.17-.153.253-.226.514-.453,1.035-.916,1.567-1.4.124-.113.252-.235.377-.35.5-.454.992-.913,1.5-1.393.02-.02.041-.037.062-.058v0a100.366,100.366,0,0,0,7.614-8.043c3.872,6.595,6.979,11.654,6.979,11.654,3.054,5.008,11.474,6.536,18.258,5.613l.03.257.042-.266a21.323,21.323,0,0,0,4.695-1.155l7.193-2.771a8.992,8.992,0,0,0,.752.707l9.456-3.351a17.936,17.936,0,0,1-1.708-2.61l11.82-4.464a12.436,12.436,0,0,0,4.215-.308c8.007-1.762,15.966-3.617,17.632-4.139.719-3.015-10.649-2.369-10.543-2.056C193.867-191.936,211.28-196.4,210.5-198Z" transform="translate(339.268 1006.868) rotate(-7)" opacity="0.449" fill="url(#linear-gradient-2)"/>
      <g id="Group_145-5" data-name="Group 145" transform="translate(237.963 807.581)">
        <path id="Path_89-6" data-name="Path 89" d="M46.391-35.272,49.778-1.494a14.84,14.84,0,0,0,10.7,10.706L94.26,12.6,60.482,15.984a14.836,14.836,0,0,0-10.7,10.706L46.391,60.468,43,26.69A14.836,14.836,0,0,0,32.3,15.984L-1.478,12.6,32.3,9.212A14.84,14.84,0,0,0,43-1.494Z" transform="translate(1.478 35.272)" fill="#fff"/>
        <circle id="Ellipse_12-6" data-name="Ellipse 12" cx="30.89" cy="30.89" r="30.89" transform="translate(18.66 16.106)" fill="#fff" opacity="0.3"/>
      </g>
      <g id="Group_145-6" data-name="Group 145" transform="translate(305.963 729.581)">
        <path id="Path_89-7" data-name="Path 89" d="M36.67-35.272l2.7,26.919A11.827,11.827,0,0,0,47.9.179l26.919,2.7L47.9,5.576a11.824,11.824,0,0,0-8.53,8.532l-2.7,26.919-2.7-26.919a11.824,11.824,0,0,0-8.53-8.532l-26.919-2.7L25.441.179a11.827,11.827,0,0,0,8.53-8.532Z" transform="translate(1.478 35.272)" fill="#fff"/>
        <circle id="Ellipse_12-7" data-name="Ellipse 12" cx="24.617" cy="24.617" r="24.617" transform="translate(14.871 12.835)" fill="#fff" opacity="0.3"/>
      </g>
      <g id="Group_232" data-name="Group 232" transform="translate(344.5 891.581)">
        <path id="Path_89-8" data-name="Path 89" d="M19.9-35.272l1.513,15.086A6.628,6.628,0,0,0,26.2-15.4l15.086,1.513L26.2-12.379A6.626,6.626,0,0,0,21.415-7.6L19.9,7.489,18.389-7.6a6.626,6.626,0,0,0-4.781-4.782L-1.478-13.891,13.608-15.4a6.628,6.628,0,0,0,4.781-4.782Z" transform="translate(1.478 35.272)" fill="#fff"/>
        <circle id="Ellipse_12-8" data-name="Ellipse 12" cx="13.797" cy="13.797" r="13.797" transform="translate(8.334 7.193)" fill="#fff" opacity="0.3"/>
      </g>
    </g>
    <g id="Group_233" data-name="Group 233" transform="translate(501.5 818.581)">
      <path id="Path_89-9" data-name="Path 89" d="M27.4-35.272l2.044,20.379A8.953,8.953,0,0,0,35.9-8.435L56.281-6.391,35.9-4.349A8.951,8.951,0,0,0,29.445,2.11L27.4,22.489,25.358,2.11A8.951,8.951,0,0,0,18.9-4.349L-1.478-6.391,18.9-8.435a8.953,8.953,0,0,0,6.457-6.459Z" transform="translate(1.478 35.272)" fill="#fff"/>
      <circle id="Ellipse_12-9" data-name="Ellipse 12" cx="18.636" cy="18.636" r="18.636" transform="translate(11.258 9.717)" fill="#fff" opacity="0.3"/>
    </g>
    <g id="Group_234" data-name="Group 234" transform="translate(241.5 754.581)">
      <path id="Path_89-10" data-name="Path 89" d="M16.171-35.272,17.42-22.818a5.472,5.472,0,0,0,3.946,3.947l12.454,1.249L21.366-16.374a5.47,5.47,0,0,0-3.946,3.947L16.171.026,14.922-12.427a5.47,5.47,0,0,0-3.946-3.947L-1.478-17.622l12.454-1.249a5.472,5.472,0,0,0,3.946-3.947Z" transform="translate(1.478 35.272)" fill="#fff"/>
      <circle id="Ellipse_12-10" data-name="Ellipse 12" cx="11.389" cy="11.389" r="11.389" transform="translate(6.88 5.938)" fill="#fff" opacity="0.3"/>
    </g>
    <g id="Group_235" data-name="Group 235" transform="translate(546.5 774.581)">
      <path id="Path_89-11" data-name="Path 89" d="M16.171-35.272,17.42-22.818a5.472,5.472,0,0,0,3.946,3.947l12.454,1.249L21.366-16.374a5.47,5.47,0,0,0-3.946,3.947L16.171.026,14.922-12.427a5.47,5.47,0,0,0-3.946-3.947L-1.478-17.622l12.454-1.249a5.472,5.472,0,0,0,3.946-3.947Z" transform="translate(1.478 35.272)" fill="#fff"/>
      <circle id="Ellipse_12-11" data-name="Ellipse 12" cx="11.389" cy="11.389" r="11.389" transform="translate(6.88 5.938)" fill="#fff" opacity="0.3"/>
    </g>
    <g id="Group_240" data-name="Group 240" transform="translate(495.5 642.581)">
      <path id="Path_89-12" data-name="Path 89" d="M16.171-35.272,17.42-22.818a5.472,5.472,0,0,0,3.946,3.947l12.454,1.249L21.366-16.374a5.47,5.47,0,0,0-3.946,3.947L16.171.026,14.922-12.427a5.47,5.47,0,0,0-3.946-3.947L-1.478-17.622l12.454-1.249a5.472,5.472,0,0,0,3.946-3.947Z" transform="translate(1.478 35.272)" fill="#fff"/>
      <circle id="Ellipse_12-12" data-name="Ellipse 12" cx="11.389" cy="11.389" r="11.389" transform="translate(6.88 5.938)" fill="#fff" opacity="0.3"/>
    </g>
  </g>
</svg>
