<svg xmlns="http://www.w3.org/2000/svg" width="18.677" height="21" viewBox="0 0 18.677 21"><defs><style>.a{fill:#fff;}</style></defs><g transform="translate(-26.9)"><g transform="translate(26.9)"><path class="a" d="M44.994,3.022H40.625V2.31A2.312,2.312,0,0,0,38.315,0H34.162a2.312,2.312,0,0,0-2.31,2.31v.712H27.483a.583.583,0,1,0,0,1.166h1.053V17.883A3.121,3.121,0,0,0,31.653,21h9.17a3.121,3.121,0,0,0,3.117-3.117V4.188h1.053a.583.583,0,1,0,0-1.166ZM33.018,2.31a1.146,1.146,0,0,1,1.144-1.144h4.153A1.146,1.146,0,0,1,39.459,2.31v.712H33.018Zm9.757,15.573a1.955,1.955,0,0,1-1.951,1.951h-9.17A1.955,1.955,0,0,1,29.7,17.883V4.188H42.78V17.883Z" transform="translate(-26.9)"/><path class="a" d="M230.283,156.867a.58.58,0,0,0,.583-.583v-10.3a.583.583,0,1,0-1.166,0v10.3A.584.584,0,0,0,230.283,156.867Z" transform="translate(-220.944 -139.122)"/><path class="a" d="M142.183,170.385a.58.58,0,0,0,.583-.583v-9.019a.583.583,0,1,0-1.166,0V169.8A.583.583,0,0,0,142.183,170.385Z" transform="translate(-136.648 -153.283)"/><path class="a" d="M318.383,170.385a.58.58,0,0,0,.583-.583v-9.019a.583.583,0,0,0-1.166,0V169.8A.58.58,0,0,0,318.383,170.385Z" transform="translate(-305.241 -153.283)"/></g></g></svg>