<?xml version="1.0" encoding="utf-8"?>
<!-- Generator: Adobe Illustrator 23.0.3, SVG Export Plug-In . SVG Version: 6.00 Build 0)  -->
<svg version="1.1" id="圖層_1" xmlns="http://www.w3.org/2000/svg" xmlns:xlink="http://www.w3.org/1999/xlink" x="0px" y="0px"
	 viewBox="0 0 511.1 511.1" style="enable-background:new 0 0 511.1 511.1;" xml:space="preserve">
<g>
	<path d="M255.6,127.8c55.9,0.1,103.9,39.6,114.8,94.3l6.4,31.9l32.6,2.3c35,2.4,61.5,32.7,59.1,67.7c-2.3,33.5-30.2,59.4-63.7,59.2
		H127.8c-47,0-85.2-38-85.2-85.1c0-43.4,32.6-79.9,75.8-84.7l22.8-2.3l10.6-20.2C171.8,152.2,211.9,127.7,255.6,127.8 M255.6,85.2
		c-59.6,0-114.2,33.2-141.6,86C43.8,178.9-6.9,241.9,0.8,312c7,64.8,61.8,114,127,113.9h276.9c58.8,0,106.5-47.7,106.5-106.5
		c0-56.2-43.7-101.8-99-105.6C397.4,139.1,331.8,85.2,255.6,85.2z"/>
</g>
</svg>
