<?xml version="1.0" encoding="utf-8"?>
<!-- Generator: Adobe Illustrator 23.0.3, SVG Export Plug-In . SVG Version: 6.00 Build 0)  -->
<svg version="1.1" xmlns="http://www.w3.org/2000/svg" xmlns:xlink="http://www.w3.org/1999/xlink" x="0px" y="0px"
	 viewBox="0 0 22.1 21" style="enable-background:new 0 0 22.1 21;" xml:space="preserve">
<g transform="translate(0 -11.714)">
	<path class="a" d="M20.4,18.4L15,18c-0.1,0-0.2-0.1-0.3-0.2l-2-5c-0.4-0.9-1.4-1.4-2.3-1c-0.4,0.2-0.8,0.5-1,1l-2.1,5c0,0.1-0.1,0.2-0.3,0.2
		l-5.4,0.4c-0.7,0-1.4,0.5-1.6,1.2c-0.2,0.7,0,1.5,0.5,1.9L4.8,25c0.1,0.1,0.1,0.2,0.1,0.3l-1.3,5.2c-0.2,0.5,0,1.1,0.3,1.5
		c0.3,0.4,0.9,0.7,1.4,0.7c0.3,0,0.7-0.1,0.9-0.3l4.5-2.8c0.1-0.1,0.2-0.1,0.3,0l4.6,2.8c0.3,0.2,0.6,0.3,1,0.3c0.5,0,1-0.2,1.4-0.7
		c0.3-0.4,0.5-1,0.3-1.6l-1.3-5.2c0-0.1,0-0.2,0.1-0.3l4.2-3.4c0.8-0.6,0.8-1.8,0.2-2.5C21.3,18.7,20.9,18.4,20.4,18.4L20.4,18.4z"
		/>
</g>
</svg>
