<?xml version="1.0" encoding="utf-8"?>
<!-- Generator: Adobe Illustrator 22.0.1, SVG Export Plug-In . SVG Version: 6.00 Build 0)  -->
<svg version="1.1" xmlns="http://www.w3.org/2000/svg" xmlns:xlink="http://www.w3.org/1999/xlink" x="0px" y="0px"
	 viewBox="0 0 84.8 84.8" style="enable-background:new 0 0 84.8 84.8;" xml:space="preserve">
<style type="text/css">
	.st0{display:none;}
	.st1{display:inline;opacity:0.5;fill:#C3C3C3;}
	.st2{display:inline;fill:#F5F5F5;}
	.st3{display:inline;fill:#FFCC80;}
	.st4{display:inline;}
	.st5{display:inline;fill:#FFB74D;}
	.st6{display:inline;fill:url(#SVGID_3_);}
	.st7{display:inline;fill:#FFFFFF;}
	.st8{display:inline;fill:#FFE0B2;}
	.st9{display:inline;fill:none;stroke:#FFCC80;stroke-miterlimit:10;}
	.st10{fill:url(#SVGID_4_);}
	.st11{fill:url(#SVGID_5_);}
	.st12{fill:url(#SVGID_6_);}
	.st13{fill:url(#SVGID_7_);}
	.st14{fill:url(#SVGID_8_);}
	.st15{fill:url(#SVGID_9_);}
	.st16{fill:url(#SVGID_10_);}
	.st17{fill:url(#SVGID_11_);}
	.st18{fill:url(#SVGID_12_);}
	.st19{fill:url(#SVGID_13_);}
	.st20{fill:url(#SVGID_14_);}
	.st21{fill:url(#SVGID_15_);}
	.st22{fill:url(#SVGID_16_);}
	.st23{fill:#2962FF;}
	.st24{opacity:0.5;}
	.st25{fill:#84FFFF;}
	.st26{fill:#DCF1F4;}
	.st27{fill:#227070;}
	.st28{fill:#22878F;}
	.st29{fill:#258F8D;}
	.st30{fill:#277366;}
	.st31{fill:#26796F;}
	.st32{fill:#2C918B;}
	.st33{fill:#FFFFFF;}
	.st34{fill:#B8FCA7;}
	.st35{fill:#A6FF99;}
	.st36{fill:#B2FF9E;}
	.st37{fill:#CCFFB3;}
	.st38{fill:#C4FFAC;}
	.st39{fill:#BEFFA9;}
	.st40{fill:#35C6DB;}
	.st41{fill:#CCFFFF;}
	.st42{opacity:0.7;}
	.st43{fill:#BEF9FF;}
	.st44{fill:#EF5350;}
	.st45{fill:#FFA726;}
	.st46{fill:#FFC107;}
	.st47{fill:#66BB6A;}
	.st48{fill:#A7FCFC;}
	.st49{fill:#9EFFFD;}
	.st50{fill:#B3FFF2;}
	.st51{fill:#00B2EB;stroke:#FFFFFF;stroke-width:3;}
	.st52{fill:#EC85B2;stroke:#FFFFFF;stroke-width:3;}
	.st53{fill:#FFE000;stroke:#FFFFFF;stroke-width:3;}
	.st54{fill:#E3006E;stroke:#FFFFFF;stroke-width:3;}
	.st55{fill:#00A53C;stroke:#FFFFFF;stroke-width:3;}
	.st56{fill:#005A9E;stroke:#FFFFFF;stroke-width:3;}
	.st57{fill:#B3B3B4;stroke:#FFFFFF;stroke-width:3;}
	.st58{fill:#00B2EB;}
	.st59{fill:#EC85B2;}
	.st60{fill:#FFE000;}
	.st61{fill:#E3006E;}
	.st62{fill:#00A53C;}
	.st63{fill:#005A9E;}
	.st64{fill:#B3B3B4;}
	.st65{fill:#00ACC1;}
	.st66{fill:#0097A7;}
	.st67{fill:#00838F;}
	.st68{fill:none;stroke:#F8F7F5;stroke-miterlimit:10;}
	.st69{fill:url(#SVGID_29_);}
	.st70{opacity:0.5;fill:#64FFDA;}
	.st71{opacity:0.5;fill:#FFFFFF;}
	.st72{fill:none;stroke:#FFFFFF;stroke-width:5;stroke-miterlimit:10;}
	.st73{fill:none;stroke:#9E9E9E;stroke-miterlimit:10;}
	.st74{fill:#80DEEA;}
	.st75{opacity:0.8;fill:#212121;}
	.st76{fill:#191011;}
	.st77{fill:#FF9800;}
	.st78{fill:none;stroke:#FF9800;stroke-width:2;stroke-miterlimit:10;}
	.st79{fill:#24DACE;}
	.st80{fill:none;stroke:#FF9800;stroke-miterlimit:10;}
	.st81{filter:url(#Adobe_OpacityMaskFilter);}
	.st82{fill:url(#SVGID_31_);}
	.st83{mask:url(#SVGID_30_);}
	.st84{filter:url(#Adobe_OpacityMaskFilter_1_);}
	.st85{fill:url(#SVGID_33_);}
	.st86{mask:url(#SVGID_32_);}
	.st87{fill:#FFFFFF;stroke:#FFFFFF;stroke-width:3;stroke-miterlimit:10;}
	.st88{fill:#FFFDE7;}
	.st89{fill:#FFF9C4;}
	.st90{fill:#FFF59D;}
	.st91{fill:#FFF176;}
	.st92{fill:#FFEE58;}
	.st93{fill:#FFEB3B;}
	.st94{fill:#FDD835;}
	.st95{fill:#FBC02D;}
	.st96{fill:#F9A825;}
	.st97{fill:#F57F17;}
	.st98{fill:#F9FBE7;}
	.st99{fill:#F0F4C3;}
	.st100{fill:#E6EE9C;}
	.st101{fill:#DCE775;}
	.st102{fill:#D4E157;}
	.st103{fill:#CDDC39;}
	.st104{fill:#C0CA33;}
	.st105{fill:#AFB42B;}
	.st106{fill:#9E9D24;}
	.st107{fill:#827717;}
	.st108{fill:#F1F8E9;}
	.st109{fill:#DCEDC8;}
	.st110{fill:#C5E1A5;}
	.st111{fill:#AED581;}
	.st112{fill:#9CCC65;}
	.st113{fill:#8BC34A;}
	.st114{fill:#7CB342;}
	.st115{fill:#689F38;}
	.st116{fill:#558B2F;}
	.st117{fill:#33691E;}
	.st118{fill:#E8F5E9;}
	.st119{fill:#C8E6C9;}
	.st120{fill:#A5D6A7;}
	.st121{fill:#81C784;}
	.st122{fill:#4CAF50;}
	.st123{fill:#43A047;}
	.st124{fill:#388E3C;}
	.st125{fill:#2E7D32;}
	.st126{fill:#1B5E20;}
	.st127{fill:#E0F2F1;}
	.st128{fill:#B2DFDB;}
	.st129{fill:#80CBC4;}
	.st130{fill:#4DB6AC;}
	.st131{fill:#26A69A;}
	.st132{fill:#009688;}
	.st133{fill:#00897B;}
	.st134{fill:#00796B;}
	.st135{fill:#00695C;}
	.st136{fill:#004D40;}
	.st137{fill:#E0F7FA;}
	.st138{fill:#B2EBF2;}
	.st139{fill:#4DD0E1;}
	.st140{fill:#26C6DA;}
	.st141{fill:#00BCD4;}
	.st142{fill:#006064;}
	.st143{fill:#E1F5FE;}
	.st144{fill:#B3E5FC;}
	.st145{fill:#81D4FA;}
	.st146{fill:#4FC3F7;}
	.st147{fill:#29B6F6;}
	.st148{fill:#03A9F4;}
	.st149{fill:#039BE5;}
	.st150{fill:#0288D1;}
	.st151{fill:#0277BD;}
	.st152{fill:#01579B;}
	.st153{fill:#E3F2FD;}
	.st154{fill:#BBDEFB;}
	.st155{fill:#90CAF9;}
	.st156{fill:#64B5F6;}
	.st157{fill:#42A5F5;}
	.st158{fill:#2196F3;}
	.st159{fill:#1E88E5;}
	.st160{fill:#1976D2;}
	.st161{fill:#1565C0;}
	.st162{fill:#0D47A1;}
	.st163{fill:#E8EAF6;}
	.st164{fill:#C5CAE9;}
	.st165{fill:#9FA8DA;}
	.st166{fill:#7986CB;}
	.st167{fill:#5C6BC0;}
	.st168{fill:#3F51B5;}
	.st169{fill:#3949AB;}
	.st170{fill:#303F9F;}
	.st171{fill:#283593;}
	.st172{fill:#1A237E;}
	.st173{fill:#EDE7F6;}
	.st174{fill:#D1C4E9;}
	.st175{fill:#B39DDB;}
	.st176{fill:#9575CD;}
	.st177{fill:#7E57C2;}
	.st178{fill:#673AB7;}
	.st179{fill:#5E35B1;}
	.st180{fill:#512DA8;}
	.st181{fill:#4527A0;}
	.st182{fill:#311B92;}
	.st183{fill:#F3E5F5;}
	.st184{fill:#E1BEE7;}
	.st185{fill:#CE93D8;}
	.st186{fill:#BA68C8;}
	.st187{fill:#AB47BC;}
	.st188{fill:#9C27B0;}
	.st189{fill:#8E24AA;}
	.st190{fill:#7B1FA2;}
	.st191{fill:#6A1B9A;}
	.st192{fill:#4A148C;}
	.st193{fill:#FCE4EC;}
	.st194{fill:#F8BBD0;}
	.st195{fill:#F48FB1;}
	.st196{fill:#F06292;}
	.st197{fill:#EC407A;}
	.st198{fill:#E91E63;}
	.st199{fill:#D81B60;}
	.st200{fill:#C2185B;}
	.st201{fill:#AD1457;}
	.st202{fill:#880E4F;}
	.st203{fill:#FFEBEE;}
	.st204{fill:#FFCDD2;}
	.st205{fill:#EF9A9A;}
	.st206{fill:#E57373;}
	.st207{fill:#CCFF90;}
	.st208{fill:#B2FF59;}
	.st209{fill:#76FF03;}
	.st210{fill:#64DD17;}
	.st211{fill:#FFD180;}
	.st212{fill:#FFAB40;}
	.st213{fill:#FF9100;}
	.st214{fill:#FF6D00;}
	.st215{fill:#FF9E80;}
	.st216{fill:#FF6E40;}
	.st217{fill:#FF3D00;}
	.st218{fill:#DD2C00;}
	.st219{fill:#FFE57F;}
	.st220{fill:#FFD740;}
	.st221{fill:#FFC400;}
	.st222{fill:#FFAB00;}
	.st223{fill:#FFFF8D;}
	.st224{fill:#FFFF00;}
	.st225{fill:#FFEA00;}
	.st226{fill:#FFD600;}
	.st227{fill:#F4FF81;}
	.st228{fill:#EEFF41;}
	.st229{fill:#C6FF00;}
	.st230{fill:#AEEA00;}
	.st231{fill:#B9F6CA;}
	.st232{fill:#69F0AE;}
	.st233{fill:#00E676;}
	.st234{fill:#00C853;}
	.st235{fill:#A7FFEB;}
	.st236{fill:#64FFDA;}
	.st237{fill:#1DE9B6;}
	.st238{fill:#00BFA5;}
	.st239{fill:#18FFFF;}
	.st240{fill:#00E5FF;}
	.st241{fill:#00B8D4;}
	.st242{fill:#40C4FF;}
	.st243{fill:#00B0FF;}
	.st244{fill:#0091EA;}
	.st245{fill:#82B1FF;}
	.st246{fill:#448AFF;}
	.st247{fill:#2979FF;}
	.st248{fill:#8C9EFF;}
	.st249{fill:#536DFE;}
	.st250{fill:#3D5AFE;}
	.st251{fill:#304FFE;}
	.st252{fill:#B388FF;}
	.st253{fill:#7C4DFF;}
	.st254{fill:#651FFF;}
	.st255{fill:#6200EA;}
	.st256{fill:#EA80FC;}
	.st257{fill:#E040FB;}
	.st258{fill:#D500F9;}
	.st259{fill:#AA00FF;}
	.st260{fill:#FF80AB;}
	.st261{fill:#FF4081;}
	.st262{fill:#F50057;}
	.st263{fill:#C51162;}
	.st264{fill:#FF8A80;}
	.st265{fill:#FF5252;}
	.st266{fill:#FF1744;}
	.st267{fill:#D50000;}
	.st268{fill:#F44336;}
	.st269{fill:#E53935;}
	.st270{fill:#D32F2F;}
	.st271{fill:#C62828;}
	.st272{fill:#B71C1C;}
	.st273{fill:#FFF3E0;}
	.st274{fill:#FFE0B2;}
	.st275{fill:#FFCC80;}
	.st276{fill:#FFB74D;}
	.st277{fill:#FB8C00;}
	.st278{fill:#F57C00;}
	.st279{fill:#EF6C00;}
	.st280{fill:#E65100;}
	.st281{fill:#FBE9E7;}
	.st282{fill:#FFCCBC;}
	.st283{fill:#FFAB91;}
	.st284{fill:#FF8A65;}
	.st285{fill:#FF7043;}
	.st286{fill:#FF5722;}
	.st287{fill:#F4511E;}
	.st288{fill:#E64A19;}
	.st289{fill:#D84315;}
	.st290{fill:#BF360C;}
	.st291{fill:#FAFAFA;}
	.st292{fill:#F5F5F5;}
	.st293{fill:#EEEEEE;}
	.st294{fill:#E0E0E0;}
	.st295{fill:#BDBDBD;}
	.st296{fill:#9E9E9E;}
	.st297{fill:#757575;}
	.st298{fill:#616161;}
	.st299{fill:#424242;}
	.st300{fill:#212121;}
	.st301{fill:#EFEBE9;}
	.st302{fill:#D7CCC8;}
	.st303{fill:#BCAAA4;}
	.st304{fill:#A1887F;}
	.st305{fill:#8D6E63;}
	.st306{fill:#795548;}
	.st307{fill:#6D4C41;}
	.st308{fill:#5D4037;}
	.st309{fill:#4E342E;}
	.st310{fill:#3E2723;}
	.st311{fill:#FFF8E1;}
	.st312{fill:#FFECB3;}
	.st313{fill:#FFE082;}
	.st314{fill:#FFD54F;}
	.st315{fill:#FFCA28;}
	.st316{fill:#FFB300;}
	.st317{fill:#FFA000;}
	.st318{fill:#FF8F00;}
	.st319{fill:#FF6F00;}
	.st320{opacity:0.2;}
	.st321{filter:url(#Adobe_OpacityMaskFilter_2_);}
	.st322{mask:url(#SVGID_36_);}
	.st323{fill:url(#SVGID_37_);}
	.st324{fill:url(#SVGID_38_);}
	.st325{fill:url(#SVGID_39_);}
	.st326{fill:url(#SVGID_40_);}
	.st327{fill:url(#SVGID_41_);}
	.st328{fill:url(#SVGID_42_);}
	.st329{fill:url(#SVGID_43_);}
	.st330{fill:url(#SVGID_44_);}
	.st331{fill:url(#SVGID_45_);}
	.st332{fill:url(#SVGID_46_);}
	.st333{fill:url(#SVGID_47_);}
	.st334{filter:url(#Adobe_OpacityMaskFilter_3_);}
	.st335{mask:url(#SVGID_48_);}
	.st336{fill:url(#SVGID_49_);}
	.st337{filter:url(#Adobe_OpacityMaskFilter_4_);}
	.st338{mask:url(#SVGID_50_);}
	.st339{fill:url(#SVGID_51_);}
	.st340{filter:url(#Adobe_OpacityMaskFilter_5_);}
	.st341{fill:url(#SVGID_53_);}
	.st342{mask:url(#SVGID_52_);}
	.st343{fill:url(#SVGID_54_);}
	.st344{opacity:0.2;fill:url(#SVGID_55_);}
	.st345{fill:none;stroke:#BDBDBD;stroke-miterlimit:10;}
	.st346{opacity:0.2;fill:url(#SVGID_56_);}
	.st347{opacity:0.2;fill:url(#SVGID_57_);}
	.st348{opacity:0.6;fill:url(#SVGID_58_);}
	.st349{fill:url(#SVGID_59_);}
	.st350{fill:#FFBD0B;}
	.st351{opacity:0.4;fill:url(#SVGID_60_);}
	.st352{opacity:0.4;fill:url(#SVGID_61_);}
	.st353{opacity:0.4;fill:url(#SVGID_62_);}
	.st354{opacity:0.6;fill:url(#SVGID_63_);}
	.st355{opacity:0.4;fill:url(#SVGID_64_);}
	.st356{opacity:0.4;fill:url(#SVGID_65_);}
	.st357{opacity:0.2;fill:url(#SVGID_66_);}
	.st358{opacity:0.6;fill:url(#SVGID_67_);}
	.st359{opacity:0.2;fill:url(#SVGID_68_);}
	.st360{opacity:0.2;fill:url(#SVGID_69_);}
	.st361{opacity:0.4;fill:url(#SVGID_70_);}
	.st362{opacity:0.4;fill:url(#SVGID_71_);}
	.st363{opacity:0.4;fill:url(#SVGID_72_);}
	.st364{opacity:0.4;fill:url(#SVGID_73_);}
	.st365{opacity:0.4;fill:url(#SVGID_74_);}
	.st366{opacity:0.4;fill:url(#SVGID_75_);}
	.st367{opacity:0.4;fill:url(#SVGID_76_);}
	.st368{opacity:0.4;fill:url(#SVGID_77_);}
	.st369{opacity:0.4;fill:url(#SVGID_78_);}
	.st370{opacity:0.4;fill:url(#SVGID_79_);}
	.st371{opacity:0.4;fill:url(#SVGID_80_);}
	.st372{opacity:0.4;fill:url(#SVGID_81_);}
	.st373{opacity:0.4;fill:url(#SVGID_82_);}
	.st374{opacity:0.4;fill:url(#SVGID_83_);}
	.st375{opacity:0.4;fill:url(#SVGID_84_);}
	.st376{opacity:0.4;fill:url(#SVGID_85_);}
	.st377{opacity:0.4;}
	.st378{fill:url(#SVGID_86_);}
	.st379{opacity:0.4;fill:url(#SVGID_87_);}
	.st380{opacity:0.4;fill:url(#SVGID_88_);}
	.st381{opacity:0.4;fill:url(#SVGID_89_);}
	.st382{opacity:0.4;fill:url(#SVGID_90_);}
	.st383{opacity:0.4;fill:url(#SVGID_91_);}
	.st384{opacity:0.4;fill:url(#SVGID_92_);}
	.st385{opacity:0.4;fill:none;stroke:#BDBDBD;stroke-width:2;stroke-miterlimit:10;}
	.st386{opacity:0.4;fill:none;stroke:#9E9E9E;stroke-width:2;stroke-miterlimit:10;}
	.st387{opacity:0.4;fill:none;stroke:#757575;stroke-width:2;stroke-miterlimit:10;}
	.st388{opacity:0.4;fill:url(#SVGID_93_);}
	.st389{opacity:0.4;fill:url(#SVGID_94_);}
	.st390{fill:url(#SVGID_95_);}
	.st391{fill:url(#SVGID_96_);}
	.st392{fill:url(#SVGID_97_);}
	.st393{fill:url(#SVGID_98_);}
	.st394{fill:url(#SVGID_99_);}
	.st395{filter:url(#Adobe_OpacityMaskFilter_6_);}
	.st396{fill:url(#SVGID_101_);}
	.st397{mask:url(#SVGID_100_);}
	.st398{fill:url(#SVGID_102_);}
	.st399{opacity:0.2;fill:url(#SVGID_103_);}
	.st400{opacity:0.2;fill:url(#SVGID_104_);}
	.st401{opacity:0.2;fill:url(#SVGID_105_);}
	.st402{opacity:0.6;fill:url(#SVGID_106_);}
	.st403{fill:url(#SVGID_107_);}
	.st404{opacity:0.4;fill:url(#SVGID_108_);}
	.st405{opacity:0.4;fill:url(#SVGID_109_);}
	.st406{opacity:0.4;fill:url(#SVGID_110_);}
	.st407{opacity:0.6;fill:url(#SVGID_111_);}
	.st408{opacity:0.4;fill:url(#SVGID_112_);}
	.st409{opacity:0.4;fill:url(#SVGID_113_);}
	.st410{opacity:0.2;fill:url(#SVGID_114_);}
	.st411{opacity:0.6;fill:url(#SVGID_115_);}
	.st412{opacity:0.2;fill:url(#SVGID_116_);}
	.st413{opacity:0.2;fill:url(#SVGID_117_);}
	.st414{opacity:0.4;fill:url(#SVGID_118_);}
	.st415{opacity:0.4;fill:url(#SVGID_119_);}
	.st416{opacity:0.4;fill:url(#SVGID_120_);}
	.st417{opacity:0.4;fill:url(#SVGID_121_);}
	.st418{opacity:0.4;fill:url(#SVGID_122_);}
	.st419{opacity:0.4;fill:url(#SVGID_123_);}
	.st420{opacity:0.4;fill:url(#SVGID_124_);}
	.st421{opacity:0.4;fill:url(#SVGID_125_);}
	.st422{opacity:0.4;fill:url(#SVGID_126_);}
	.st423{opacity:0.4;fill:url(#SVGID_127_);}
	.st424{opacity:0.4;fill:url(#SVGID_128_);}
	.st425{opacity:0.4;fill:url(#SVGID_129_);}
	.st426{opacity:0.4;fill:url(#SVGID_130_);}
	.st427{opacity:0.4;fill:url(#SVGID_131_);}
	.st428{opacity:0.4;fill:url(#SVGID_132_);}
	.st429{opacity:0.4;fill:url(#SVGID_133_);}
	.st430{fill:url(#SVGID_134_);}
	.st431{opacity:0.4;fill:url(#SVGID_135_);}
	.st432{opacity:0.4;fill:url(#SVGID_136_);}
	.st433{opacity:0.4;fill:url(#SVGID_137_);}
	.st434{opacity:0.4;fill:url(#SVGID_138_);}
	.st435{opacity:0.4;fill:url(#SVGID_139_);}
	.st436{opacity:0.4;fill:url(#SVGID_140_);}
	.st437{opacity:0.4;fill:url(#SVGID_141_);}
	.st438{opacity:0.4;fill:url(#SVGID_142_);}
	.st439{fill:url(#SVGID_143_);}
	.st440{fill:url(#SVGID_144_);}
	.st441{fill:url(#SVGID_145_);}
	.st442{fill:url(#SVGID_146_);}
	.st443{fill:url(#SVGID_147_);}
	.st444{fill:#FFAA2B;}
	.st445{filter:url(#Adobe_OpacityMaskFilter_7_);}
	.st446{mask:url(#SVGID_148_);}
	.st447{fill:url(#SVGID_149_);}
	.st448{filter:url(#Adobe_OpacityMaskFilter_8_);}
	.st449{mask:url(#SVGID_150_);}
	.st450{fill:url(#SVGID_151_);}
	.st451{filter:url(#Adobe_OpacityMaskFilter_9_);}
	.st452{mask:url(#SVGID_152_);}
	.st453{fill:url(#SVGID_153_);}
	.st454{filter:url(#Adobe_OpacityMaskFilter_10_);}
	.st455{fill:url(#SVGID_155_);}
	.st456{mask:url(#SVGID_154_);}
	.st457{fill:url(#SVGID_156_);}
	.st458{opacity:0.2;fill:url(#SVGID_157_);}
	.st459{opacity:0.2;fill:url(#SVGID_158_);}
	.st460{opacity:0.2;fill:url(#SVGID_159_);}
	.st461{opacity:0.6;fill:url(#SVGID_160_);}
	.st462{fill:url(#SVGID_161_);}
	.st463{opacity:0.4;fill:url(#SVGID_162_);}
	.st464{opacity:0.4;fill:url(#SVGID_163_);}
	.st465{opacity:0.4;fill:url(#SVGID_164_);}
	.st466{opacity:0.6;fill:url(#SVGID_165_);}
	.st467{opacity:0.4;fill:url(#SVGID_166_);}
	.st468{opacity:0.4;fill:url(#SVGID_167_);}
	.st469{opacity:0.2;fill:url(#SVGID_168_);}
	.st470{opacity:0.6;fill:url(#SVGID_169_);}
	.st471{opacity:0.2;fill:url(#SVGID_170_);}
	.st472{opacity:0.2;fill:url(#SVGID_171_);}
	.st473{opacity:0.4;fill:url(#SVGID_172_);}
	.st474{opacity:0.4;fill:url(#SVGID_173_);}
	.st475{opacity:0.4;fill:url(#SVGID_174_);}
	.st476{opacity:0.4;fill:url(#SVGID_175_);}
	.st477{opacity:0.4;fill:url(#SVGID_176_);}
	.st478{opacity:0.4;fill:url(#SVGID_177_);}
	.st479{opacity:0.4;fill:url(#SVGID_178_);}
	.st480{opacity:0.4;fill:url(#SVGID_179_);}
	.st481{opacity:0.4;fill:url(#SVGID_180_);}
	.st482{opacity:0.4;fill:url(#SVGID_181_);}
	.st483{opacity:0.4;fill:url(#SVGID_182_);}
	.st484{opacity:0.4;fill:url(#SVGID_183_);}
	.st485{opacity:0.4;fill:url(#SVGID_184_);}
	.st486{opacity:0.4;fill:url(#SVGID_185_);}
	.st487{opacity:0.4;fill:url(#SVGID_186_);}
	.st488{opacity:0.4;fill:url(#SVGID_187_);}
	.st489{fill:url(#SVGID_188_);}
	.st490{opacity:0.4;fill:url(#SVGID_189_);}
	.st491{opacity:0.4;fill:url(#SVGID_190_);}
	.st492{opacity:0.4;fill:url(#SVGID_191_);}
	.st493{opacity:0.4;fill:url(#SVGID_192_);}
	.st494{opacity:0.4;fill:url(#SVGID_193_);}
	.st495{opacity:0.4;fill:url(#SVGID_194_);}
	.st496{opacity:0.4;fill:url(#SVGID_195_);}
	.st497{opacity:0.4;fill:url(#SVGID_196_);}
	.st498{fill:url(#SVGID_197_);}
	.st499{fill:url(#SVGID_198_);}
	.st500{fill:url(#SVGID_199_);}
	.st501{fill:url(#SVGID_200_);}
	.st502{fill:url(#SVGID_201_);}
	.st503{fill:#2DCCD7;}
	.st504{fill:url(#SVGID_204_);}
	.st505{fill:url(#SVGID_205_);}
	.st506{fill:url(#SVGID_206_);}
	.st507{fill:url(#SVGID_207_);}
	.st508{filter:url(#Adobe_OpacityMaskFilter_11_);}
	.st509{mask:url(#SVGID_208_);}
	.st510{fill:url(#SVGID_209_);}
	.st511{filter:url(#Adobe_OpacityMaskFilter_12_);}
	.st512{mask:url(#SVGID_210_);}
	.st513{fill:url(#SVGID_211_);}
	.st514{fill:none;stroke:#000000;stroke-miterlimit:10;}
	.st515{fill:none;}
</style>
<g id="參考線">
</g>
<g id="圖層_2">
</g>
<g id="圖層_4" class="st0">
</g>
<g id="圖層_6">
</g>
<g id="圖層_7">
</g>
<g id="圖層_5">
</g>
<g id="圖層_3">
	<path d="M77.2,36.4c1.4,0,2.5-1.1,2.5-2.5c0-2.7,0-5.5,0-8.2c0-1.4-1.1-2.5-2.5-2.5c-0.6,0-1.3,0-1.9,0c-5.4-3-10.9-6-16.3-9
		c-3.8-2.1-7.6-4.2-11.4-6.3c-1.3-0.7-3.4-2.4-5.1-2.4c-1.7,0-3.7,1.7-5.1,2.4c-3.8,2.1-7.6,4.2-11.4,6.3c-5.4,3-10.9,6-16.3,9
		c-0.6,0-1.3,0-1.9,0c-1.4,0-2.5,1.1-2.5,2.5c0,2.7,0,5.5,0,8.2c0,0.7,0.3,1.3,0.7,1.7c0,0,0.1,0.1,0.1,0.1c0,0,0,0,0,0
		c0.4,0.4,1,0.7,1.7,0.7c1,0,1.9,0,2.9,0c0,9.9,0,19.8,0,29.8c-1,0-1.9,0-2.9,0c-1.4,0-2.5,1.1-2.5,2.5c0,2.7,0,5.5,0,8.2
		c0,0.7,0.3,1.3,0.7,1.7c0,0,0.1,0.1,0.1,0.1c0,0,0,0,0,0c0.4,0.4,1,0.7,1.7,0.7c23.2,0,46.4,0,69.5,0c1.4,0,2.5-1.1,2.5-2.5
		c0-2.7,0-5.5,0-8.2c0-1.4-1.1-2.5-2.5-2.5c-1,0-1.9,0-2.9,0c0-9.9,0-19.8,0-29.8C75.3,36.4,76.2,36.4,77.2,36.4z M74.7,71.2
		c0,1.1,0,2.2,0,3.2c-21.5,0-43,0-64.5,0c0-1.1,0-2.2,0-3.2c1,0,1.9,0,2.9,0c1.9,0,3.8,0,5.8,0c15.8,0,31.5,0,47.3,0
		c1.9,0,3.8,0,5.8,0C72.8,71.2,73.7,71.2,74.7,71.2z M16.3,36.4c0,9.9,0,19.8,0,29.8c-0.3,0-0.5,0-0.8,0c0-9.9,0-19.8,0-29.8
		C15.8,36.4,16,36.4,16.3,36.4z M28.7,36.4c0,9.9,0,19.8,0,29.8c-2.5,0-5,0-7.4,0c0-9.9,0-19.8,0-29.8
		C23.8,36.4,26.2,36.4,28.7,36.4z M63.6,66.2c-2.5,0-5,0-7.4,0c0-9.9,0-19.8,0-29.8c2.5,0,5,0,7.4,0C63.6,46.3,63.6,56.3,63.6,66.2z
		 M51.1,66.2c-2.1,0-4.1,0-6.2,0c0-9.9,0-19.8,0-29.8c2.1,0,4.1,0,6.2,0C51.1,46.3,51.1,56.3,51.1,66.2z M39.9,66.2
		c-2.1,0-4.1,0-6.2,0c0-9.9,0-19.8,0-29.8c2.1,0,4.1,0,6.2,0C39.9,46.3,39.9,56.3,39.9,66.2z M68.6,66.2c0-9.9,0-19.8,0-29.8
		c0.3,0,0.5,0,0.8,0c0,9.9,0,19.8,0,29.8C69.1,66.2,68.8,66.2,68.6,66.2z M66.1,31.4c-15.8,0-31.5,0-47.3,0c-1.9,0-3.8,0-5.8,0
		c-1,0-1.9,0-2.9,0c0-1.1,0-2.2,0-3.2c0,0,0,0,0.1,0c21.5,0,42.9,0,64.4,0c0,0,0,0,0.1,0c0,1.1,0,2.2,0,3.2c-1,0-1.9,0-2.9,0
		C69.9,31.4,68,31.4,66.1,31.4z M42.4,10.8c7.5,4.1,15,8.3,22.5,12.4c-3.6,0-7.3,0-10.9,0l-11.6-6.4l-11.6,6.4c-3.6,0-7.3,0-10.9,0
		C27.4,19,34.9,14.9,42.4,10.8z"/>
</g>
</svg>
